<mxfile host="Electron" modified="2023-11-09T16:41:07.163Z" agent="Mozilla/5.0 (Windows NT 10.0; Win64; x64) AppleWebKit/537.36 (KHTML, like Gecko) draw.io/22.0.2 Chrome/114.0.5735.289 Electron/25.8.4 Safari/537.36" etag="sRZ3kNLLSlns-6RnN-gu" version="22.0.2" type="device">
  <diagram id="JTSNINnAieShD870J618" name="use-case">
    <mxGraphModel dx="1471" dy="844" grid="1" gridSize="10" guides="1" tooltips="1" connect="1" arrows="1" fold="1" page="1" pageScale="1" pageWidth="1169" pageHeight="827" math="0" shadow="0">
      <root>
        <mxCell id="0" />
        <mxCell id="1" parent="0" />
        <mxCell id="CUVnpvYyG0HLbxS-GIYo-1" value="&lt;font style=&quot;&quot; color=&quot;#ae562c&quot;&gt;Compartment&lt;br&gt;&lt;b&gt;sandbox-london&lt;/b&gt;&lt;/font&gt;" style="whiteSpace=wrap;html=1;strokeWidth=1;dashed=1;align=left;fontFamily=Oracle Sans;verticalAlign=bottom;fillColor=none;fontColor=#312d2a;strokeColor=#AE562C;dashPattern=1 1;fontSize=12;perimeterSpacing=0;spacingLeft=5;" vertex="1" parent="1">
          <mxGeometry x="20" y="15" width="1110" height="445" as="geometry" />
        </mxCell>
        <mxCell id="Nkz60xgJKw_xwo8QLRS3-103" style="edgeStyle=orthogonalEdgeStyle;rounded=0;orthogonalLoop=1;jettySize=auto;html=1;exitX=1;exitY=0.5;exitDx=0;exitDy=0;entryX=0;entryY=0.5;entryDx=0;entryDy=0;" parent="1" source="Nkz60xgJKw_xwo8QLRS3-17" target="Nkz60xgJKw_xwo8QLRS3-22" edge="1">
          <mxGeometry relative="1" as="geometry" />
        </mxCell>
        <mxCell id="Nkz60xgJKw_xwo8QLRS3-17" value="Data Integration" style="rounded=1;whiteSpace=wrap;html=1;fillColor=none;strokeColor=#6c8ebf;align=center;verticalAlign=top;fontStyle=1;spacingLeft=4;fontSize=10;spacingRight=4;spacing=2;spacingTop=0;strokeWidth=4;arcSize=9;" parent="1" vertex="1">
          <mxGeometry x="40" y="80" width="120" height="170" as="geometry" />
        </mxCell>
        <mxCell id="Nkz60xgJKw_xwo8QLRS3-5" style="vsdxID=55;fillColor=none;gradientColor=none;strokeColor=none;spacingTop=-3;spacingBottom=-3;spacingLeft=-3;spacingRight=-3;points=[];labelBackgroundColor=none;rounded=0;html=1;whiteSpace=wrap;" parent="1" vertex="1">
          <mxGeometry x="50.00428571428574" y="213.66857142857143" width="28.92857142857143" height="28.92857142857143" as="geometry" />
        </mxCell>
        <mxCell id="Nkz60xgJKw_xwo8QLRS3-6" style="vsdxID=56;fillColor=#2d5967;gradientColor=none;shape=stencil(lZhLctswDIZP4y1HIEiQXKfJPTKN03jqxhknadPbF6qoBwEbsna2DMjQhx8Paod37y+Pb/ud794/zqef+z+Hp4+XHX7beX94fdmfDx/8aYf3O7x7Pp33P86nz9en4fvbY2/Zf/p1+t3f4Wvwg67rfXz3d/hO4HL8f+VhMD8eXg1zTK7AdfOcW2tyREvr75/nIRio9snF6lGvYHQwuHRffjSqJvU7oiu+mmA1IefHG9VL6B2l65EWdCk2wXp0UK47JJIO/J943Z7SHFJlyX/pLRqV1cSCHbxvWVCYgNUr4F1ILQ1CRQPAFYMG+SbS7rol5pstFTAVhATAyfdCD8vHG/MfFIEiCHDyJQAJvw22ZvLG1G7RDf9xS0EJU1IAbBEs9T4/shc6YHYBWgrMO8mqkBXZBrup2Lc1klZhLNGumBC87Ay99IvAgC0Dii4HwQAVA65MtLIr65YrPxsYPEqHvrcYxcYCEIXRt69sFkZoWbBDyqIqouwMfXNFURekaOTsOoOGqPdxHtzSRWxbRU0FotpjkJJYPuEoAVIQOgFh2ZnxSgLWev9KivV0WRFRVqpTKlWzcxHUNEBcJ2SxmLCLEVJaItPYngdIVdxNS8HGHUKZtxsK60CzQ4Md/6yUFO3JLOsPXDQegFT6M/dfs32RVCqODrNSRfPKwXWieREImQaXjFFDLeccxxtetI6Kc2ERGsMhgNtmvykcVOHw08ZgQUZdAUuI07owW/kpGxI1okDt7WjbVrciID0iViQK0FivFAC0PZr1HY1mBkmkkeUdzekDdGEWZ4EZosJMXo/jqHovdXb3CFIXsZgOct9inRsildYscqvzqWCwOGv5izLxLHOKJuyoRM06LyBok6LNOi9yAUxyDeZdEoy5JZTEm4pp3aqUWQaDnS4C3k+9v7nGIDvLWN89uWAePlEeNWh0mHuHOHr2yRGMsbSE+5QbtSqaYi8oyxqUflww9MZa32JOm4IhFYx6VjUGxVFmyW/a2QViUohJb60quWsjnh2K4aB2COjMA7NeUlaOgRlU54DxWHfZwavUe+GgNkJUx2duCiRfp4jj83wknPfBoA+Osm+JaHWjMxtjkbxZ6WDcX9mz0nFTPCtTI6vOznI3tc0ekvZ8qp1pozqpL4cn6mTPos/GhqD1xJo3Hbau1Tc48If5PePz4XgcXlMuf5fvJfnS8E4T7/8B);strokeColor=none;spacingTop=-3;spacingBottom=-3;spacingLeft=-3;spacingRight=-3;points=[];labelBackgroundColor=none;rounded=0;html=1;whiteSpace=wrap;" parent="Nkz60xgJKw_xwo8QLRS3-5" vertex="1">
          <mxGeometry width="28.92857142857143" height="28.92857142857143" as="geometry" />
        </mxCell>
        <mxCell id="Nkz60xgJKw_xwo8QLRS3-7" style="vsdxID=57;fillColor=#2d5967;gradientColor=none;shape=stencil(nZBLCoAwDERPk31tjuDnHoLVBmsrtf5ub0sQRdzobiZ5ycAA5pOuRwVSTMG7Xq3UBA1YgJRktfIUogIsAfPWedV5N9uG/VgnMqnBLenDxneZEOlGip09u4pRQ/aG/gTPhFf0Gf8J/otGcdXRkjHc5n3/rC+OuHosDw==);strokeColor=none;spacingTop=-3;spacingBottom=-3;spacingLeft=-3;spacingRight=-3;points=[];labelBackgroundColor=none;rounded=0;html=1;whiteSpace=wrap;" parent="Nkz60xgJKw_xwo8QLRS3-5" vertex="1">
          <mxGeometry x="17.5" y="11.071428571428571" width="2.5" height="2.5" as="geometry" />
        </mxCell>
        <mxCell id="Nkz60xgJKw_xwo8QLRS3-8" style="vsdxID=58;fillColor=#2d5967;gradientColor=none;shape=stencil(nZBLCoAwDERPk31tjuDnHoLVBmsrtf5ub0sQRdzobiZ5ycAA5pOuRwVSTMG7Xq3UBA1YgJRktfIUogIsAfPWedV5N9uG/VgnMqnBLenDxneZEOlGip09u4pRQ/aG/gTPhFf0Gf8J/otGcdXRkjHc5n3/rC+OuHosDw==);strokeColor=none;spacingTop=-3;spacingBottom=-3;spacingLeft=-3;spacingRight=-3;points=[];labelBackgroundColor=none;rounded=0;html=1;whiteSpace=wrap;" parent="Nkz60xgJKw_xwo8QLRS3-5" vertex="1">
          <mxGeometry x="20.714285714285715" y="11.071428571428571" width="2.5" height="2.5" as="geometry" />
        </mxCell>
        <mxCell id="Nkz60xgJKw_xwo8QLRS3-9" style="vsdxID=59;fillColor=#2d5967;gradientColor=none;shape=stencil(nZBLCoAwDERPk31tjuDnHoLVBmsrtf5ub0sQRdzobiZ5ycAA5pOuRwVSTMG7Xq3UBA1YgJRktfIUogIsAfPWedV5N9uG/VgnMqnBLenDxneZEOlGip09u4pRQ/aG/gTPhFf0Gf8J/otGcdXRkjHc5n3/rC+OuHosDw==);strokeColor=none;spacingTop=-3;spacingBottom=-3;spacingLeft=-3;spacingRight=-3;points=[];labelBackgroundColor=none;rounded=0;html=1;whiteSpace=wrap;" parent="Nkz60xgJKw_xwo8QLRS3-5" vertex="1">
          <mxGeometry x="17.5" y="14.642857142857142" width="2.5" height="2.5" as="geometry" />
        </mxCell>
        <mxCell id="Nkz60xgJKw_xwo8QLRS3-10" style="vsdxID=60;fillColor=#2d5967;gradientColor=none;shape=stencil(nZBLCoAwDERPk31tjuDnHoLVBmsrtf5ub0sQRdzobiZ5ycAA5pOuRwVSTMG7Xq3UBA1YgJRktfIUogIsAfPWedV5N9uG/VgnMqnBLenDxneZEOlGip09u4pRQ/aG/gTPhFf0Gf8J/otGcdXRkjHc5n3/rC+OuHosDw==);strokeColor=none;spacingTop=-3;spacingBottom=-3;spacingLeft=-3;spacingRight=-3;points=[];labelBackgroundColor=none;rounded=0;html=1;whiteSpace=wrap;" parent="Nkz60xgJKw_xwo8QLRS3-5" vertex="1">
          <mxGeometry x="20.714285714285715" y="14.642857142857142" width="2.5" height="2.5" as="geometry" />
        </mxCell>
        <mxCell id="Nkz60xgJKw_xwo8QLRS3-11" style="vsdxID=61;fillColor=#2d5967;gradientColor=none;shape=stencil(UzV2Ls5ILEhVNTIoLinKz04tz0wpyVA1dlE1MsrMy0gtyiwBslSNXVWNndPyi1LTi/JL81Ig/IJEkEoQKze/DGRCBUSfAUiHkUElMs8NojAnMw9JoamZnqkFimJTPKpRjTU0wKPUxETP3IR45TBJYlyBaTTRTiZPIZCBCOi0zJwcSDwhy6NHDFAIEqnGrgA=);strokeColor=none;spacingTop=-3;spacingBottom=-3;spacingLeft=-3;spacingRight=-3;points=[];labelBackgroundColor=none;rounded=0;html=1;whiteSpace=wrap;" parent="Nkz60xgJKw_xwo8QLRS3-5" vertex="1">
          <mxGeometry x="11.071428571428571" y="11.071428571428571" width="5.357142857142858" height="6.071428571428571" as="geometry" />
        </mxCell>
        <mxCell id="Nkz60xgJKw_xwo8QLRS3-12" style="vsdxID=62;fillColor=#2d5967;gradientColor=none;shape=stencil(jVLbDoIwDP2avZLRBtFnxP8gMmQRGRmg8PeydAmsBsNbL6c753QVmPV10SkBsh+seaqPLoda4FUA6LZWVg9LJDAXmFXGqoc1Y1tS3hUO6aKXebsXJppLpBsBOVMaS8pvhL2PlsAxtdM0Onl8HA7ICVhhhnUm9hjkGAxU7LCucF8AiPAS0m6U+YoMORNG+ZfREZxDTmaTmdwqwhBxyCIzuN0Z/Eriq97zyH6z0e3hn1+C9WQq3TR0cds+P7GlROeJ+Rc=);strokeColor=none;spacingTop=-3;spacingBottom=-3;spacingLeft=-3;spacingRight=-3;points=[];labelBackgroundColor=none;rounded=0;html=1;whiteSpace=wrap;" parent="Nkz60xgJKw_xwo8QLRS3-5" vertex="1">
          <mxGeometry x="4.642857142857143" y="11.428571428571429" width="2.142857142857143" height="2.142857142857143" as="geometry" />
        </mxCell>
        <mxCell id="Nkz60xgJKw_xwo8QLRS3-13" style="vsdxID=63;fillColor=#2d5967;gradientColor=none;shape=stencil(jVLbDoIwDP2avZKtFfEd8T+IgCwikAEKfy9Ll7DVYHjr5XTnnK4C06HO+1KAHEbTPcuPLsZa4FUA6LYujR7XSGAmMK06Uz5MN7UF5X1ukTZ6dW/7wkxzsbQjIBdKlaT8Rtj7ZAisqJ0k0dnhVTggZ2CFBbYZ5TDIMRio2GHd4K4AEOElpPWUuYoMOWNG+ZdxJTiFlMwl8+gLwhBxyCHz568MfhTxRe85ZH/Z6Pbwv6/BdjCVbhq6N7/PD2wt0XFi9gU=);strokeColor=none;spacingTop=-3;spacingBottom=-3;spacingLeft=-3;spacingRight=-3;points=[];labelBackgroundColor=none;rounded=0;html=1;whiteSpace=wrap;" parent="Nkz60xgJKw_xwo8QLRS3-5" vertex="1">
          <mxGeometry x="7.5" y="15.714285714285715" width="1.4285714285714286" height="1.4285714285714286" as="geometry" />
        </mxCell>
        <mxCell id="Nkz60xgJKw_xwo8QLRS3-14" style="vsdxID=64;fillColor=#2d5967;gradientColor=none;shape=stencil(jVLbDoIwDP2avZKtDRKfEf/DyJBFBDJA4e9lKYatBMNbL+fs9HQVmHblrdUCZNfb5qk/Ju9LgRcBYOpSW9PPkcBMYFo0Vj9sM9Q55e3NIV30at7uhZF4sXQUkBOlSlJ+Jex9sARW1E6S6KQWggoZcgRWmGBDGpFjMBhjR3aFLwWACM+hrD/aUpKhaMw0/0p6Cj9R5pO59EfCEHHII3PoL22rMPFd73lk/1mZ+vDfz8F6NIWpKro5v8+PbC7RgWL2BQ==);strokeColor=none;spacingTop=-3;spacingBottom=-3;spacingLeft=-3;spacingRight=-3;points=[];labelBackgroundColor=none;rounded=0;html=1;whiteSpace=wrap;" parent="Nkz60xgJKw_xwo8QLRS3-5" vertex="1">
          <mxGeometry x="3.928571428571429" y="14.285714285714286" width="2.5" height="2.5" as="geometry" />
        </mxCell>
        <mxCell id="Nkz60xgJKw_xwo8QLRS3-15" style="vsdxID=65;fillColor=#2d5967;gradientColor=none;shape=stencil(lVLREoIgEPwaXh24q4xns/9wEpPJxEEt/fskmBFocurtWHbdW1yCWV8XnSBA+0Grm3jKcqgJngiAbGuh5bBMBHOCWaW0uGo1tqU9d4VhmumuHuYLk9XteMK5UQGdLcIofZ/Pln4ZteUze52myQGcgIUKOkEEzLCKmONgzHHAftN2pTsAIEEe2vqrOYiGpn5a9BlfXI3JMfSNokZB/a0wZPwUMwrpvxt8rhQ/90bM6K82sv2nBMuwFqiSTWP759/HhVsgW1bMXw==);strokeColor=none;spacingTop=-3;spacingBottom=-3;spacingLeft=-3;spacingRight=-3;points=[];labelBackgroundColor=none;rounded=0;html=1;whiteSpace=wrap;" parent="Nkz60xgJKw_xwo8QLRS3-5" vertex="1">
          <mxGeometry x="7.5" y="11.071428571428571" width="3.5714285714285716" height="3.5714285714285716" as="geometry" />
        </mxCell>
        <mxCell id="Nkz60xgJKw_xwo8QLRS3-21" value="" style="group;fontSize=10;" parent="1" vertex="1" connectable="0">
          <mxGeometry x="67.5" y="120" width="65" height="55" as="geometry" />
        </mxCell>
        <mxCell id="Nkz60xgJKw_xwo8QLRS3-18" value="" style="rounded=0;whiteSpace=wrap;html=1;fontSize=10;" parent="Nkz60xgJKw_xwo8QLRS3-21" vertex="1">
          <mxGeometry width="50" height="40" as="geometry" />
        </mxCell>
        <mxCell id="Nkz60xgJKw_xwo8QLRS3-19" value="" style="rounded=0;whiteSpace=wrap;html=1;fontSize=10;" parent="Nkz60xgJKw_xwo8QLRS3-21" vertex="1">
          <mxGeometry x="8" y="8" width="50" height="40" as="geometry" />
        </mxCell>
        <mxCell id="Nkz60xgJKw_xwo8QLRS3-20" value="Task&lt;br&gt;Runs" style="rounded=0;whiteSpace=wrap;html=1;fontSize=10;" parent="Nkz60xgJKw_xwo8QLRS3-21" vertex="1">
          <mxGeometry x="15" y="15" width="50" height="40" as="geometry" />
        </mxCell>
        <mxCell id="Nkz60xgJKw_xwo8QLRS3-104" style="edgeStyle=orthogonalEdgeStyle;rounded=0;orthogonalLoop=1;jettySize=auto;html=1;exitX=1;exitY=0.5;exitDx=0;exitDy=0;entryX=0;entryY=0.5;entryDx=0;entryDy=0;" parent="1" source="Nkz60xgJKw_xwo8QLRS3-22" target="Nkz60xgJKw_xwo8QLRS3-52" edge="1">
          <mxGeometry relative="1" as="geometry" />
        </mxCell>
        <mxCell id="Nkz60xgJKw_xwo8QLRS3-22" value="Logging" style="rounded=1;whiteSpace=wrap;html=1;fillColor=none;strokeColor=#6c8ebf;align=center;verticalAlign=top;fontStyle=1;spacingLeft=4;fontSize=10;spacingRight=4;spacing=2;spacingTop=0;strokeWidth=2;arcSize=9;" parent="1" vertex="1">
          <mxGeometry x="190" y="80" width="120" height="170" as="geometry" />
        </mxCell>
        <mxCell id="Nkz60xgJKw_xwo8QLRS3-23" style="vsdxID=16;fillColor=none;gradientColor=none;strokeColor=none;spacingTop=-3;spacingBottom=-3;spacingLeft=-3;spacingRight=-3;points=[];labelBackgroundColor=none;rounded=0;html=1;whiteSpace=wrap;aspect=fixed;" parent="1" vertex="1">
          <mxGeometry x="201" y="213.66857142857143" width="31.08" height="30" as="geometry" />
        </mxCell>
        <mxCell id="Nkz60xgJKw_xwo8QLRS3-24" style="vsdxID=17;fillColor=none;gradientColor=none;strokeColor=none;spacingTop=-3;spacingBottom=-3;spacingLeft=-3;spacingRight=-3;points=[];labelBackgroundColor=none;rounded=0;html=1;whiteSpace=wrap;" parent="Nkz60xgJKw_xwo8QLRS3-23" vertex="1">
          <mxGeometry width="31.080000000000002" height="30" as="geometry" />
        </mxCell>
        <mxCell id="Nkz60xgJKw_xwo8QLRS3-25" style="vsdxID=18;fillColor=#FFFFFF;gradientColor=none;shape=stencil(lZRBcoMwDEVPw1YjSxjkdZrcI9OQwpSGDCFtevtC7UwsIGTYyeJ/8/jYSnhzKffnIiG8dG3zWfxUh65M+C0hqk5l0VZdXyW8TXhzbNrio22up4Nfn/eDcqi+mu9hh5v3kQObDi7CX99xDpD/OztvqKtTbMiARBsEMFswENhMG1Iw7rkhBZFl/fu19d9gwiuAOTjM2II38i0MirB0BGiCgrUiLMWBeU6JCtECyhIhajyClDRdT+M0IGq4KBWFOwsnFqzOEJfoRIBzTYgazyGkmeYjMKIRYxHP56IxY0PYNAexS6gGR1GygzTXsA9NaNgM3EvUTCDP17COz8cYNXaY6aGjafb3sKPDy9MfymPVLC9bELPm2jECsTLcc5y/1qsHx2tDXzzm1LGqaz/m4ufjuda3/Ezk7R8=);strokeColor=none;spacingTop=-3;spacingBottom=-3;spacingLeft=-3;spacingRight=-3;points=[];labelBackgroundColor=none;rounded=0;html=1;whiteSpace=wrap;" parent="Nkz60xgJKw_xwo8QLRS3-24" vertex="1">
          <mxGeometry width="30.357209302325582" height="29.277108433734938" as="geometry" />
        </mxCell>
        <mxCell id="Nkz60xgJKw_xwo8QLRS3-26" style="vsdxID=19;fillColor=#FFFFFF;gradientColor=none;shape=stencil(lVbbVuMwDPyavOrYkuPLM7D/wVnKNofSckLZLX+Pu3EUW20VeEvVmXg8uqWju/ft49umQ/N+HA8vm3/D03Hb0X2HOOy3m3E45qeOHjq6ez6Mmz/j4WP/NP1+ezwjz0+vh7/nN5wmXnTQxzMLzecUQSD3P/Brwv/+GCeCLQwPHgvDCoo5YQFFQFtAJUSQykEnugSVkAeT6sN3w74WWxHKyRH6oKlNAXrbqqXEV57l1qgS6j2fpekNc+ibgmMA6lV7K8ocSuC88LdKwnwHC1JvlVsSoKtyqQcKjdwVvAHfXi/lBOJtAgZwriU4iL1CIFmeyUAMtwk9JB0u/ab5fLZ7obDdCBhat3NOkFq7KxBxsq3mxkK4Xv1Sa0Vg9UmUcnUfFs/dSdIkEpDrVbw6I36KX5tB5vsJNrphQYwq07plpFVR9JBpjdLnk2mUrba66WTdeepE3bH+ucuJO+hmNhfM9bJD8KKnVgj9UlPc5kErbA/U4nMjKL5lfPCS4LQDcvcJRRHIq5OK2rqxRikyQnAk329JIeQbkPQ0aZvBcandIlxshsDNziXDnGWVGRCj6nIxVJhlUkXF74rAey+hJna2l6XW+xQlZp5dCeyq1LxDvJKJS6krQzUTnLC1GgPI/nCFtqNDWbZKga2MvPywfLA9D7vd9L1X/y8/8HJo+jikhy8=);strokeColor=none;spacingTop=-3;spacingBottom=-3;spacingLeft=-3;spacingRight=-3;points=[];labelBackgroundColor=none;rounded=0;html=1;whiteSpace=wrap;" parent="Nkz60xgJKw_xwo8QLRS3-24" vertex="1">
          <mxGeometry width="31.080000000000002" height="30" as="geometry" />
        </mxCell>
        <mxCell id="Nkz60xgJKw_xwo8QLRS3-27" style="vsdxID=20;fillColor=none;gradientColor=none;strokeColor=none;spacingTop=-3;spacingBottom=-3;spacingLeft=-3;spacingRight=-3;points=[];labelBackgroundColor=none;rounded=0;html=1;whiteSpace=wrap;" parent="Nkz60xgJKw_xwo8QLRS3-23" vertex="1">
          <mxGeometry x="0.3613953488372093" y="0.3614457831325301" width="29.634418604651163" height="28.19277108433735" as="geometry" />
        </mxCell>
        <mxCell id="Nkz60xgJKw_xwo8QLRS3-28" style="vsdxID=21;fillColor=#2d5967;gradientColor=none;shape=stencil(lZPdcoIwEIWfJrc7Sdb8XVt9D0exZErBidjq2xeaAMla2undcjiHfBt2GW6v9eFSMcmvfejeqk9/6muGL0xK39ZV8P1QMdwx3J67UL2G7tae4vPlMDrH6r37GL9wjzmHoNSYkvwRFStAi29lHwPHW4gJ8RxJkpVgdJTucnZxl1xJsghOJBcmlwSNyYXUlc5vfJsBa9gQXuqnvAqcI7gKOMFVoJDQapCEdogZAmsA1TosL0gF5+vW/CZ+tD/9Bg3GlH1NibmrWZiacgKcLptaPLgyACXo4s97XIO0IHQJuQE6KQqsIpggyZxkMzdxI9hfrvPvuf53YCiWNTr7polbmL+nazdIcWVx9wU=);strokeColor=none;spacingTop=-3;spacingBottom=-3;spacingLeft=-3;spacingRight=-3;points=[];labelBackgroundColor=none;rounded=0;html=1;whiteSpace=wrap;" parent="Nkz60xgJKw_xwo8QLRS3-27" vertex="1">
          <mxGeometry x="11.203255813953488" y="20.602409638554217" width="15.178604651162791" height="6.144578313253012" as="geometry" />
        </mxCell>
        <mxCell id="Nkz60xgJKw_xwo8QLRS3-29" style="vsdxID=22;fillColor=#2d5967;gradientColor=none;shape=stencil(lZXRcoMgEEW/xtcdWEDhOU3/I9OYxmkaM8a05u+LQ0BYIm3fcL3XOXtdoBKb63F3aStk13HoP9rvbj8eK/FSIXbnYzt0o11VYluJzaEf2vehv5337vmym5Xz6rP/mr8wOR83oHB2Ibu7itEgXeXVGU7dOTVgnRoa0KZg0NCI1FCD4OsGCYhl/dttcD1wJxBgPBKnFjahF9XmIcIgYvIhEpnoUTEKGr0OGxkI/SprMGT0C2roJ4P3pFFKlP0p6NKHJ6V6ShrFc8/gJ8yCvmf0njUWUfznsJHBVRBBiiJtA7VIaS2J1ARXg1EprkVRZAo4YyktKlClEQ9635wsJrvoPSlwnoFyAsrCxpuy2QykQfS3rUXlGSlolaKylJOljIveM5Iky/89jTHbepSOpBhlNmU8gdBnv76RvOQpov0kT0ezLGfAVNqVHUFZPF//fSD/ZrCL5fw/dKeTuz7i9/S+sCV314jtDw==);strokeColor=none;spacingTop=-3;spacingBottom=-3;spacingLeft=-3;spacingRight=-3;points=[];labelBackgroundColor=none;rounded=0;html=1;whiteSpace=wrap;" parent="Nkz60xgJKw_xwo8QLRS3-27" vertex="1">
          <mxGeometry width="26.74325581395349" height="26.746987951807228" as="geometry" />
        </mxCell>
        <mxCell id="Nkz60xgJKw_xwo8QLRS3-30" style="vsdxID=23;fillColor=#2d5967;gradientColor=none;shape=stencil(nZLdCsIwDIWfJrcjNuvA6znfY7DOFms7uvn39rYEcQ4sxbtzki+5yAlQO+t+UiBwXoI/q7sZFg10ACGM0yqYJSqgDqgdfVCn4K9uYD/1iUzq4m9pw4PnJKYRgU+2O2R/ZNYat2Lfzb/gDNrIUvJ7pcCqbkphqivc/4Y3dxCyGM1eIc9G8cllNNZyrOv+NsdY4h+g7gU=);strokeColor=none;spacingTop=-3;spacingBottom=-3;spacingLeft=-3;spacingRight=-3;points=[];labelBackgroundColor=none;rounded=0;html=1;whiteSpace=wrap;" parent="Nkz60xgJKw_xwo8QLRS3-27" vertex="1">
          <mxGeometry x="2.168372093023256" y="2.5301204819277108" width="1.084186046511628" height="2.891566265060241" as="geometry" />
        </mxCell>
        <mxCell id="Nkz60xgJKw_xwo8QLRS3-31" style="vsdxID=24;fillColor=#2d5967;gradientColor=none;shape=stencil(nZBLCoAwDERPk31tjuDnHoLVBmsrtf5ub0sQRdzobiZ5ycAA5pOuRwVSTMG7Xq3UBA1YgJRktfIUogIsAfPWedV5N9uG/VgnMqnBLenDxneZEOlGip09u4pRQ/aG/gTPhFf0Gf8J/otGcdXRkjHc5n3/rC+OuHosDw==);strokeColor=none;spacingTop=-3;spacingBottom=-3;spacingLeft=-3;spacingRight=-3;points=[];labelBackgroundColor=none;rounded=0;html=1;whiteSpace=wrap;" parent="Nkz60xgJKw_xwo8QLRS3-27" vertex="1">
          <mxGeometry x="4.698139534883721" y="4.698795180722891" width="0.3613953488372093" height="0.3614457831325301" as="geometry" />
        </mxCell>
        <mxCell id="Nkz60xgJKw_xwo8QLRS3-32" style="vsdxID=25;fillColor=#2d5967;gradientColor=none;shape=stencil(nZBLCoAwDERPk31tjuDnHoLVBmsrtf5ub0sQRdzobiZ5ycAA5pOuRwVSTMG7Xq3UBA1YgJRktfIUogIsAfPWedV5N9uG/VgnMqnBLenDxneZEOlGip09u4pRQ/aG/gTPhFf0Gf8J/otGcdXRkjHc5n3/rC+OuHosDw==);strokeColor=none;spacingTop=-3;spacingBottom=-3;spacingLeft=-3;spacingRight=-3;points=[];labelBackgroundColor=none;rounded=0;html=1;whiteSpace=wrap;" parent="Nkz60xgJKw_xwo8QLRS3-27" vertex="1">
          <mxGeometry x="4.698139534883721" y="3.253012048192771" width="0.3613953488372093" height="0.3614457831325301" as="geometry" />
        </mxCell>
        <mxCell id="Nkz60xgJKw_xwo8QLRS3-33" style="vsdxID=26;fillColor=#2d5967;gradientColor=none;shape=stencil(lZLZDoIwEEW/pq+T0qELz4j/QUKRRqQEcPt7WxsjaNDyNsu5N5PJJZiPTdlrwug4Dfaor6aaGoI7wpjpGj2YyVUEC4J5bQd9GOy5q0Lfl5701clevMMt6FgKmHkVo/cwSSh99vuAt6ab4akCqRa4YODbNYFESGS8/2sZBQsOii9wd57K1gWZBL485oe7pCDTWPj7L8iBi3UBE6Aw1p3GgpiA3PKQDc/eGJS/uCvemaxN24ZIz/efGXajkH8sHg==);strokeColor=none;spacingTop=-3;spacingBottom=-3;spacingLeft=-3;spacingRight=-3;points=[];labelBackgroundColor=none;rounded=0;html=1;whiteSpace=wrap;" parent="Nkz60xgJKw_xwo8QLRS3-27" vertex="1">
          <mxGeometry x="6.505116279069767" y="2.1686746987951806" width="2.8911627906976745" height="2.891566265060241" as="geometry" />
        </mxCell>
        <mxCell id="Nkz60xgJKw_xwo8QLRS3-34" style="vsdxID=27;fillColor=#2d5967;gradientColor=none;shape=stencil(jVbLcsMgDPwaXzWAeJhz2v5HpnEaT9Mk4yRt+ve1i7FBih83hNcsKy2CAjfXw/ZSFUpcb835s/qpd7dDgS+FUvXpUDX1rR0V+FrgZn9uqo/mfD/tQnzZdshu9HX+7lZ4hP+MAtP9pMRvmBD/0VvAvt+bAJbhI0asTMHioUKoFGjfI/opDfGfB4YZGdeIMYLQc6QavM9plQSnc2qR06IGV+a8Iqc1s0JFTmgNdHFKmOyqn3ElKEu0ttmVOW9pwds56jSJ/ZQ3YE1OP1Sij6UQObX24wYxx0wQW8eIx1V7mpLkOd1ZFJgss1azd0CclSaTSozkaVWQYlaVeYRL7psokVc69d+06kVjl4qqTk5LNBXRTKqcHN/M5j3jsT6tPut5X3A50lkQfk6LI4lstVmZS7EjfXQTP6WGyBkhU92BWafkNUTHqAVoUkJUrISLshU3Lu9NinDbwRgDtyKy21JJN0tMnSMBCSvTjElNpjWr4eRNXQJM85N+rGl/8mBIc+TeHUET1MazuyBdOObXsWvoyYl1jH5RueMd8knDoD0yKQ0SxNpql/Q+ElA60ii4aMtz7ohkZvC8Yyx1gXYwPiz29fEY3iXpd/oQaafCIwZf/wA=);strokeColor=none;spacingTop=-3;spacingBottom=-3;spacingLeft=-3;spacingRight=-3;points=[];labelBackgroundColor=none;rounded=0;html=1;whiteSpace=wrap;" parent="Nkz60xgJKw_xwo8QLRS3-27" vertex="1">
          <mxGeometry x="10.11906976744186" y="2.1686746987951806" width="2.529767441860465" height="3.253012048192771" as="geometry" />
        </mxCell>
        <mxCell id="Nkz60xgJKw_xwo8QLRS3-35" style="vsdxID=28;fillColor=#2d5967;gradientColor=none;shape=stencil(lVPbEoIgEP0aXhnYVcHnLv/RpCaTqUN2+/tgKEpIx952l3OYc/ZCcHWud31JgJ0H3R3LmyqGmuCaAKi2LrUaTERwQ3BVdbo86O7SFi7vdxZpo1N3tT/cHY8zZjnAHi532dZBG9V+QQXQdCk2ZZTxERiRIk4TQCz/fLFiNIrHKhJJZb7053dvfgtOQ4cBfH/RrtE8JvCg+XeIugAhBCPIq5ILKuQ/o8iA2nSKkIVzlrO+BIt8Ca/IOzMlP4p3yW+ENycDa4JTzmc2MrKWZDQT04Q/tn0WaoLPQVWqadw9fr+HB2hK7nhx8wQ=);strokeColor=none;spacingTop=-3;spacingBottom=-3;spacingLeft=-3;spacingRight=-3;points=[];labelBackgroundColor=none;rounded=0;html=1;whiteSpace=wrap;" parent="Nkz60xgJKw_xwo8QLRS3-27" vertex="1">
          <mxGeometry x="14.094418604651162" y="2.1686746987951806" width="2.529767441860465" height="2.891566265060241" as="geometry" />
        </mxCell>
        <mxCell id="Nkz60xgJKw_xwo8QLRS3-36" style="vsdxID=29;fillColor=#2d5967;gradientColor=none;shape=stencil(jZXbbsIwDIafprdWEud4zdh7oFFGNUZRgQ3efqmStnFY2kpcJOZ3P8ex4wo31+PuUleCXW9d+1X/NvvbscK3SojmfKy75uZXFW4r3Bzarv7s2vt5H/aXXa/sV9/tT/+FR/CzCtD0XoI9g0UI6Lf+9x4cPu5d8OBBYBRoHl0GE8hoeYhg0TiantHEogLDVlowLiowVRSwyMFkWEaZ3IHKmElgkcH98Sh18cACpKRgNMAkhTMKVg6EpmRGsT7z3M5hGWU6AcrNMp0GnEVyNpthCdZR5uAwpXjKXhEqODhNwaOolOHEpXzcVBVN1o4xz+An1Xq+YWNjjHwJkuKVAqUyvL94Q/G+0rmaLW0JfLnCJAdpKB8RMMv+P201qQp8pSHrrPTD5Y5Og4wsbYdyWH16g8ANxafdM3Ry8uqI1yvCV1Xp8k/NOXkAU4+88goBWwEOq6Vq9SbtaMCpKmvJqVVyOg130q8sbWdA6cXsOv8YLV9uOixKjycNd8V48YtpOB2a0ynMtvT/fJh5UxiEuP0D);strokeColor=none;spacingTop=-3;spacingBottom=-3;spacingLeft=-3;spacingRight=-3;points=[];labelBackgroundColor=none;rounded=0;html=1;whiteSpace=wrap;" parent="Nkz60xgJKw_xwo8QLRS3-27" vertex="1">
          <mxGeometry x="18.069767441860467" y="2.1686746987951806" width="2.8911627906976745" height="1.8072289156626506" as="geometry" />
        </mxCell>
        <mxCell id="Nkz60xgJKw_xwo8QLRS3-37" style="vsdxID=30;fillColor=#2d5967;gradientColor=none;shape=stencil(lZPbkoMgDIafhttMICJw3cN7dFq7Mmu1Q+3p7VcnthXdddi7JH6B/49E0OpS7s6FUHhpQ/Nd3P2hLQWthVK+Lovg2y4StBG0Ojah+ArNtT5wft71ZB+dmlt/woP7JGLfo/DJOWdbRitfj1CjQKeyGgFlBGcIOvu7QZn0w5MVU6c4VqEdZPmCiliD0ZDbMb2/Bh6enF8wlIwF4h58qLf19zCGkpWAL4oG6jMBmkKJM57pnTTE7iyBWXSXm5k760C62J3F2JrLII+dOYx9vd7cryLHlyb9s3+84EW0Cz5LcvRVxTs2/j5dqq7EC0mbHw==);strokeColor=none;spacingTop=-3;spacingBottom=-3;spacingLeft=-3;spacingRight=-3;points=[];labelBackgroundColor=none;rounded=0;html=1;whiteSpace=wrap;" parent="Nkz60xgJKw_xwo8QLRS3-27" vertex="1">
          <mxGeometry x="21.683720930232557" y="2.1686746987951806" width="2.529767441860465" height="2.5301204819277108" as="geometry" />
        </mxCell>
        <mxCell id="Nkz60xgJKw_xwo8QLRS3-38" style="vsdxID=31;fillColor=#2d5967;gradientColor=none;shape=stencil(nVXbcsIgEP2avO7ALgR4tvY/nBprpladqK39+yYFwiUGtW/k5Cxn71S0OG1Xx6ZCdjp3h4/mu12ftxW9VIjtftt07bk/VbSsaLE5dM17d7js1/b7uBqYw+nz8DXccLV2NQOFgxWyH4do4PoPebUGb5fOWnBHUKClM/EQB6otdEULKU9x37IG7YSuZCGNwIVjOUgioCqJa+MJo7hQoCgVNxhcdJAgH9aoH7McRBpqUdI3NQhM9UkAM6k+ZyxVJz6JPnAcgOpO7MHCAzrEhFP/vDNRcXzmJSieqo/lmRFXWcnHQo3StQDUqTRLZUXvHKWyrKRJJtzI0xt9XvsWkkVN5CCyJrvXY7wPxGQ9BlJm/T0RjjhJcLMp3rX7aBI92fkon/QQGYhsBFGDVKmPccfQNMmUs2b0pQqTO9+LNxqiz/04qzRleZf4nWaMbXhuU9KPZ7WgX/uJeUJ/3BxBP9qtvkcYGJ7qx7n0cyJBFOsvKVR2fgvG4+a3cDS28/WXxmfpgU7VebJKZL/CblLDfvsHWec9k9LjKB8yeOBhfNqgP4R3eNPudvYZj//n73YP2Teflr8=);strokeColor=none;spacingTop=-3;spacingBottom=-3;spacingLeft=-3;spacingRight=-3;points=[];labelBackgroundColor=none;rounded=0;html=1;whiteSpace=wrap;" parent="Nkz60xgJKw_xwo8QLRS3-27" vertex="1">
          <mxGeometry x="2.168372093023256" y="7.951807228915663" width="1.8069767441860465" height="2.891566265060241" as="geometry" />
        </mxCell>
        <mxCell id="Nkz60xgJKw_xwo8QLRS3-39" style="vsdxID=32;fillColor=#2d5967;gradientColor=none;shape=stencil(nZBLCoAwDERPk31tjuDnHoLVBmsrtf5ub0sQRdzobiZ5ycAA5pOuRwVSTMG7Xq3UBA1YgJRktfIUogIsAfPWedV5N9uG/VgnMqnBLenDxneZEOlGip09u4pRQ/aG/gTPhFf0Gf8J/otGcdXRkjHc5n3/rC+OuHosDw==);strokeColor=none;spacingTop=-3;spacingBottom=-3;spacingLeft=-3;spacingRight=-3;points=[];labelBackgroundColor=none;rounded=0;html=1;whiteSpace=wrap;" parent="Nkz60xgJKw_xwo8QLRS3-27" vertex="1">
          <mxGeometry x="4.698139534883721" y="10.481927710843374" width="0.3613953488372093" height="0.3614457831325301" as="geometry" />
        </mxCell>
        <mxCell id="Nkz60xgJKw_xwo8QLRS3-40" style="vsdxID=33;fillColor=#2d5967;gradientColor=none;shape=stencil(nZBLCoAwDERPk31tjuDnHoLVBmsrtf5ub0sQRdzobiZ5ycAA5pOuRwVSTMG7Xq3UBA1YgJRktfIUogIsAfPWedV5N9uG/VgnMqnBLenDxneZEOlGip09u4pRQ/aG/gTPhFf0Gf8J/otGcdXRkjHc5n3/rC+OuHosDw==);strokeColor=none;spacingTop=-3;spacingBottom=-3;spacingLeft=-3;spacingRight=-3;points=[];labelBackgroundColor=none;rounded=0;html=1;whiteSpace=wrap;" parent="Nkz60xgJKw_xwo8QLRS3-27" vertex="1">
          <mxGeometry x="4.698139534883721" y="9.036144578313253" width="0.3613953488372093" height="0.3614457831325301" as="geometry" />
        </mxCell>
        <mxCell id="Nkz60xgJKw_xwo8QLRS3-41" style="vsdxID=34;fillColor=#2d5967;gradientColor=none;shape=stencil(lZLdDoIwDIWfZrfNto6NXaO+BwlDFpERwL+3l7kQQSOOu9P260naHIJZX+WtIZz2Q+dO5maLoSK4I5zbpjKdHUZFcE8wK11njp27NEWo29yTXp3d1Tvcw55WkEi/xekjdOirOgS4ts0MVhQUxsIiBaUXMAqg+vcCl5BGu9NYEBkotoCFmq6IcGZ0xZsLQB2Pf39EIkix8m8EpuL9p2EULBNI5Za/bErKH3gU70CWtq5DnufzzwCPrRB+3D8B);strokeColor=none;spacingTop=-3;spacingBottom=-3;spacingLeft=-3;spacingRight=-3;points=[];labelBackgroundColor=none;rounded=0;html=1;whiteSpace=wrap;" parent="Nkz60xgJKw_xwo8QLRS3-27" vertex="1">
          <mxGeometry x="6.505116279069767" y="7.951807228915663" width="2.8911627906976745" height="2.891566265060241" as="geometry" />
        </mxCell>
        <mxCell id="Nkz60xgJKw_xwo8QLRS3-42" style="vsdxID=35;fillColor=#2d5967;gradientColor=none;shape=stencil(lZTRdsIgDIafprc5kEAK1869h2fWtWfOeqpu7u3XDmwbcPV4Bz8JH4GfFLQ61ZtjVaA6nbv2o/putue6oJcCsTnUVdec+1FB64JWu7ar3rv2ctiG+XEzRA6jz/Zr2OEa8tCA0kMWqp+g6BJU+ae8hoS3SxcydAhwU0ZUkMFRkK4YJBUj4tRoMBwjSEbEqXVgzRJWSWZpgbVkzg4WFa8AjcSimqKipJVaAs+vSOf7RhRhRi/7A1lJJ87o7AD9En+eEyW24GzC54zPCrx7yLcM+km8IfCSbvpbRUknAzqp3riMjh5w0W2WE68ZoATOJitde7Bawt2dhx+j/rO6k3CNgJLt7zw7EEr0zWAjeNFvnqe7lN4fje4kUT2sdBHIyddCMIm57zxvXuX8n9wKT3vJvjk813z6wdS6ds1+HzrffD1tdb0U2iStfwE=);strokeColor=none;spacingTop=-3;spacingBottom=-3;spacingLeft=-3;spacingRight=-3;points=[];labelBackgroundColor=none;rounded=0;html=1;whiteSpace=wrap;" parent="Nkz60xgJKw_xwo8QLRS3-27" vertex="1">
          <mxGeometry x="10.48046511627907" y="7.951807228915663" width="1.4455813953488372" height="2.891566265060241" as="geometry" />
        </mxCell>
        <mxCell id="Nkz60xgJKw_xwo8QLRS3-43" style="vsdxID=36;fillColor=#2d5967;gradientColor=none;shape=stencil(lVRBcsIwDHxNrhpbsmX7TOk/mBJKppQwAVr6+zq140RpyZSbo2jt1a6kilbn/eZUV6jOl659qz+b7WVf0VOF2Bz3dddc4qmidUWrXdvVr117PW7T92nTZ/an9/ajv+GWcEEB+x6F6itF0IA2P5HnBDg0xwnAGbASYAx4mgJerl16QqcE9sAmQ3LIYrnlhjlLg+ecNYQUUAbeKAMtqOF5Ktfr+3zNrwI9guP7AM0QrADYAMbfB5AG4scUIT9oXBQhB4GkIsYORIsi8S1FM0UMoJGKoF3wz4JBwXZe3ZysQ/BekuWRRSbmRqsKVzBWUmUHM+/UgnEMrAVRbcHig7KiBmslVVJgtaQaNSAtueKk6hwiBlzoNPVQ04ShRUp1akEMjj0rxXAMblGMqSPjIAae+eZAoxQjDiLOxPAEykoxxgn+e4qUlCM2rg9LdIMDw5Lu1JXMLRhQbuZdEaLQnS61wc7lrfaPNRgP4xLdNYdD2sHT//OlG0NpYdP6Gw==);strokeColor=none;spacingTop=-3;spacingBottom=-3;spacingLeft=-3;spacingRight=-3;points=[];labelBackgroundColor=none;rounded=0;html=1;whiteSpace=wrap;" parent="Nkz60xgJKw_xwo8QLRS3-27" vertex="1">
          <mxGeometry x="6.143720930232559" y="19.156626506024097" width="8.312093023255814" height="7.951807228915663" as="geometry" />
        </mxCell>
        <mxCell id="Nkz60xgJKw_xwo8QLRS3-44" style="vsdxID=37;fillColor=#2d5967;gradientColor=none;shape=stencil(lZHdDoIwDIWfZrdNbcmAa8T3IGG4RWRkgD9vL3MxMg1E707brydNj+Bi0FWvBOEwOntSV1OPWvBeEJlOK2fGWQkuBReNdero7NTVoe4rT3p1thfvcAt7OUjyS4T30MBndQhsa7oFixGYQpass1++nALJdV4yJDJayBFowx+Bs4jf4cbpr+GP5n88ZZudxfvzjWnbENxy/pnU3Aopc/kA);strokeColor=none;spacingTop=-3;spacingBottom=-3;spacingLeft=-3;spacingRight=-3;points=[];labelBackgroundColor=none;rounded=0;html=1;whiteSpace=wrap;" parent="Nkz60xgJKw_xwo8QLRS3-27" vertex="1">
          <mxGeometry x="5.420930232558139" y="24.57831325301205" width="3.613953488372093" height="3.6144578313253013" as="geometry" />
        </mxCell>
        <mxCell id="Nkz60xgJKw_xwo8QLRS3-45" style="vsdxID=38;fillColor=#2d5967;gradientColor=none;shape=stencil(lZXLcsIwDEW/JluNLfm5pu1/MCWUTClhArT07+vUMX6VkO4c+Sonkq6dhlan3frYNshO56F/b7+6zXnX0FOD2B127dCd3aqh54ZW235o34b+ctj45+N6VI6rj/5zfMPV5wkLBscsZN8+whn7fX7x8tfL4PXcbysOQk4JPM9gV/QBTcDspJlCVoIQk4p8yCBwM6lCSIKlOfoNFdhKA+XwKJkCpAHVQzQ3oGbRSgCpHF6UTRKUyNks53Idu72UWxScVpNDAjNpyX3sw06jAlnMOZ1hKNnERpb9D/TUYvSnx/bd4T+WzB2MzpAqkyOCmK/NxpRgLAFMF7XZapzuy2xenGSVk26ie0ZioKnobHxvOEIMLC8am3zihNImqmhh8VZUg3VT1Cbnp6rgKxlV9/nj0Zo/RwSoi/INiILvbH4bEdYqqme/lC+r+ystDCtRdANXD+lV93NrL/CqW8S7etvt9/6qT/fLu92F/H+Bnn8A);strokeColor=none;spacingTop=-3;spacingBottom=-3;spacingLeft=-3;spacingRight=-3;points=[];labelBackgroundColor=none;rounded=0;html=1;whiteSpace=wrap;" parent="Nkz60xgJKw_xwo8QLRS3-27" vertex="1">
          <mxGeometry x="10.11906976744186" y="3.9759036144578315" width="19.515348837209302" height="18.433734939759034" as="geometry" />
        </mxCell>
        <mxCell id="Nkz60xgJKw_xwo8QLRS3-46" style="vsdxID=39;fillColor=#2d5967;gradientColor=none;shape=stencil(lVbbUuMwDP2avGpsKb49s/AfDBSaodsyoeyWv193bcey0qTtW6JIPjrSkeKOHr62z5+bDtXXcTx8bP4Or8dtR786xGG/3YzDMT519NjRw9th3LyPh+/9a3r/fD57np9+H/6cTzilOKOBzDkK1U+yaKX+vz8l95fvMfnr9Nk6MDYH6DZCnTAZXABH2SebggGVw06UTN6BL17VZM0aejwm9C16BFO6xZ8SKujWgnUtevXJBqPA4hp2jcgG6sG4Fpnnl02IgCiYW+h9i64JjF9Ddx7It/j9hHWqPAtWgVcttBGsV3tNBE5gik5HcsG1gCwrxk3fSddAr1tkXseWW0Hm/aDW49Yeiw5z3Uz0lGlhuQCXGV+VdjyZsIXnQ1M4GtBCYHX8Cks200LtGXs37O/ZAe3KIISeGvfYrUCrQoqCD2JpxB1hRGkJUHJzgF6wQ3CC3OS0tLMUeKEmfnAZHrbZcJ5kBnNM8XQjfedAidbGIoqldWFpUphkNMEzr2zqQ9kMS/AspoxXABTK4knWioSr7F2cCLdafQ9BsPcKUDSf9yibfOy02JwXpF29FvC5rPT8ZJxLFOdZZjDSoPyd/DEWVpSfFbYsUjb9tSK9KD/3urX7UZ1WLHGuK5wnWSoSOyJ+2Xz0l8Tf7pYblkV8qLeTt2G3S5cb/l3eZqIp3YTo8R8=);strokeColor=none;spacingTop=-3;spacingBottom=-3;spacingLeft=-3;spacingRight=-3;points=[];labelBackgroundColor=none;rounded=0;html=1;whiteSpace=wrap;" parent="Nkz60xgJKw_xwo8QLRS3-27" vertex="1">
          <mxGeometry x="14.817209302325582" y="10.843373493975903" width="5.05953488372093" height="5.421686746987952" as="geometry" />
        </mxCell>
        <mxCell id="Nkz60xgJKw_xwo8QLRS3-47" style="vsdxID=40;fillColor=#2d5967;gradientColor=none;shape=stencil(lZRNcoMwDIVP463Glvwjr9P0HpmGFKYUMoS05PaFmpSoMzjJTjx/knlIQtHmVO6OhUJ96rv2o/iu9n2p6EUhVk1ZdFU/Roq2ijaHtiveu/bc7NPzcTeRU/TZfk0VhpTnImicslBfkkIO4q/wmvi6am54QghR8AaQ13kD3j6BUwRygrcMAdcTtCyu9TqKEZx5HHcBiAXuETjzKuwA3eP1mcFRDn87d6lTJh1HAnutv0hu7saAs+QhXMvOEgcws5OB5FX6Mgshgs20PTiwckzu9CUyUJDuIiBl/TnQLP2Zvy+++DPARvrzYI20xx44SoO5ThB4ORi5sXhyYe7zY7Bs56Gq67Tct+f/t3mU0p+Atj8=);strokeColor=none;spacingTop=-3;spacingBottom=-3;spacingLeft=-3;spacingRight=-3;points=[];labelBackgroundColor=none;rounded=0;html=1;whiteSpace=wrap;" parent="Nkz60xgJKw_xwo8QLRS3-27" vertex="1">
          <mxGeometry x="20.59953488372093" y="10.843373493975903" width="3.975348837209302" height="5.421686746987952" as="geometry" />
        </mxCell>
        <mxCell id="Nkz60xgJKw_xwo8QLRS3-48" style="vsdxID=41;fillColor=#2d5967;gradientColor=none;shape=stencil(lZXbcoIwEIafhtudZDcHcm3b93AqVqZWHNTWvn2hISQbRsC7sPzJt8ekoM3lsD1XBYrLtW0+q596dz0U9FIg1qdD1dbXblXQa0GbfdNWH21zO+3893nbK/vVV/Pdn3D3+5QF029C8esNUoj/7zevfr+1Xi79b+3A4LBB8h3ijt5gEWTQDCanQbpBRd5USkA9qILJgDBz9BEV2MYCSU6PmsFAFvQiWpZg9RzaYDglsLOoCcE4ThYcKwmcehKroJQcixbKkqPzgB1kuRacqhHUHDRPshrPw4lXoeYGHC6Gu1hgJNCG09PWCQFq0CXnxyakSWMTlwzoY316Yg741MSyBXl0/FFkMUHj4GigrJJdr4psdKQErRZjG0WP5rYEaTN8cvDAMklcOHWSxlqrrLCL4TscBzXwuzZVyPmpKri0ih8n+tH4itgywSULMrs7SIHJ+KlqMrTr+V2yRdbYNvb6mH+wlIVPoAzHJ6KV85zsCNeKBNKcnXoY0hHvyZnYJ7Xnk7ViVrpFfJ/29fHon7f0f/6edSb/FtLrHw==);strokeColor=none;spacingTop=-3;spacingBottom=-3;spacingLeft=-3;spacingRight=-3;points=[];labelBackgroundColor=none;rounded=0;html=1;whiteSpace=wrap;" parent="Nkz60xgJKw_xwo8QLRS3-27" vertex="1">
          <mxGeometry x="13.010232558139535" y="5.783132530120482" width="14.455813953488372" height="14.457831325301205" as="geometry" />
        </mxCell>
        <mxCell id="Nkz60xgJKw_xwo8QLRS3-51" value="Logs" style="shape=hexagon;perimeter=hexagonPerimeter2;whiteSpace=wrap;html=1;fixedSize=1;fontSize=10;" parent="1" vertex="1">
          <mxGeometry x="205" y="128" width="90" height="40" as="geometry" />
        </mxCell>
        <mxCell id="Nkz60xgJKw_xwo8QLRS3-105" style="edgeStyle=orthogonalEdgeStyle;rounded=0;orthogonalLoop=1;jettySize=auto;html=1;exitX=1;exitY=0.5;exitDx=0;exitDy=0;entryX=0;entryY=0.5;entryDx=0;entryDy=0;" parent="1" source="Nkz60xgJKw_xwo8QLRS3-52" target="Nkz60xgJKw_xwo8QLRS3-59" edge="1">
          <mxGeometry relative="1" as="geometry" />
        </mxCell>
        <mxCell id="Nkz60xgJKw_xwo8QLRS3-52" value="Connector Hub" style="rounded=1;whiteSpace=wrap;html=1;fillColor=none;strokeColor=#6c8ebf;align=center;verticalAlign=top;fontStyle=1;spacingLeft=4;fontSize=10;spacingRight=4;spacing=2;spacingTop=0;strokeWidth=2;arcSize=9;" parent="1" vertex="1">
          <mxGeometry x="340" y="80" width="120" height="170" as="geometry" />
        </mxCell>
        <mxCell id="Nkz60xgJKw_xwo8QLRS3-53" value="Service Connector" style="shape=process;whiteSpace=wrap;html=1;backgroundOutline=1;fontSize=10;" parent="1" vertex="1">
          <mxGeometry x="360" y="126.75" width="80" height="42.5" as="geometry" />
        </mxCell>
        <mxCell id="Nkz60xgJKw_xwo8QLRS3-54" style="vsdxID=117;fillColor=none;gradientColor=none;strokeColor=none;spacingTop=-3;spacingBottom=-3;spacingLeft=-3;spacingRight=-3;points=[];labelBackgroundColor=none;rounded=0;html=1;whiteSpace=wrap;aspect=fixed;" parent="1" vertex="1">
          <mxGeometry x="348" y="213.66857142857143" width="30" height="33.6" as="geometry" />
        </mxCell>
        <mxCell id="Nkz60xgJKw_xwo8QLRS3-55" style="vsdxID=118;fillColor=#FFFFFF;gradientColor=none;shape=stencil(lVrblhQ3DPyaefXx/fJMyH9wwhL2hLCcBRL4+8iZseQutd3JG9nYU7YupZLct/Dm68d3X55u3n799vryx9Pfz++/fbyFX27eP3/++PT6/I3+dQtvb+HNh5fXp99fX75/fn//7y/v+sr+rz9f/uq/8OO+LzbTQt/l7c/7Xxr9Jf/7l1/vG377/nrf4R5bqvHlscXJnnr/0w//WJVNTo9VnlfFsSo8ViUTxqrHn1o1qWzxo7EZ8IvJGfCDcRHwswmI702pgB9Ni1t8b6IH/GCSA3xvsgd8D+DBhAzg1uR2cXl3xK7NhALYZNVwxK7VBAfw2VR/hK/FHEz/6fnzHCvThsd6Z+L+uE6s4HiPhfOGPFzO5y3N5Hg8b/DGQqyUMm61wPfFpHDEL1HFqg8mg72KMxXs5S0faeDnaqxbG8xFQeefdX53YNqSwcH9KOl44PmHx4G9Se14YFo1fM4Go5DbwgfTlLkyuMshdDK1ALQzJQB0Hn9aYVsTgVfIvwl8VYWvBjw5AUKFwgI8JYsW6FmRyvy7I7E4KBicMgbj1JQbRqmr2yhl1zF25jBgq7MfZruD2Y1Fq8eRswtsa1K6ocdtO2Jb44FLKZA8gNsR2gJOTLl1uVWRnhSyxVtbZXGr3J2pIF1cm3N5BIBElpjcg7t7wgOLO9MagJdRIJf+LhDomRjQH8EDX5PB06hMwuGmgsNpUdpSMv0IEAxt8RDoRZmdFo28H+CkA7wC91vt0KTiCXgAn3ciSAq95CM6UQw6PY84OGfjwkX6wcaZgnjLSEkCa1ivcRGayBjDJAk/T2SM1uraK23xo4Hi2Ss7svF0yEFT1lQIlH55MBdV3aPWAHO5kbzDXIHK5Pa4RBNQbEPkwwmB1+NpaU1Jx9Nq/pZFa/4uCruAqyLbZQKPAD4lXuCL121OeZVTtCWiyjCuAbg3qAmdAUVIa/Yp5ZiRGPuMRhNiW6aONY3SIntBo2h1SnEgMnsEpgAIir+xcnTdtsf1kJgUANgCTKVtYCedGKpk0iK3FZXkowrgkZsN8XYG7MCifIo00GdSGlaCWhSI4y0epMKkZQa4U5Gmc0wWLcCr0il9C4A3aRK8nBCMbk3TF9+HuZO0dGxRh2RIikPbvSAXB9VJkGG38tBNLYLjOMFGxkVt+ZOQ07pconddCrCR6R7MCj9DKSKnOQWfMOTrOORpKehqaaQ5U0zbKrveUkGl7ycBgdXTHFM0jvHDofEDSd3Ta+uv3lJirFppgUc9cKpJd3Vw/a5RplUxrw2mO2UKTL81WNRag0Iem4De/kP7Q7mUwGCRig8EWBuEuR5qYO+l5HAffEAVySaiIvXcrQ7sdFFE6Lgey6eqYP3myCsmAK+QEYHT3LDECjsrMrcGVcM08DrWNMadpmhhXrHS4I59xqhHzCTc9tPjuYZdRbv81+umJH25U1Yc2FmaI6/8McAhI6+cnIqW/hI8nhc54IMpDAMfL4KXr6K7XxtE0pw2k2oH9pxTMLBnWHANq2NyH9lg3rGgD3XgqqR0JyZQlFmacM4Ja8Bc1I3ChLOT55aLqG8PGCVx9CrSI2Y1FZgpfsiMJjcZfI7F42iuOs2EF+VJCZMkhpiqzfG88+9K/QkwuaJVGNqXxZn2KFU2lf2BT/bSetQiflYt/ZU2qUXoXspvQfiqBuJdQMEQh1Y1HS57adZOugCPXUBzBgrXrB1HHntt/CtR2oIYzOEegSdLY6p47sgZP0uPNt1+O7xrxSB84EBj+MqdvOgcB2WbFmHp9Dx1WaE33YxkA653FnuwIlwS+IcKtJ59WrM3fRPCHIXb8mxrunsBWiVFh54fDd/cdNtt003OwqSnbt4CR7YoFU96/gxZR0GEErOPD/Zh79Q7EO3BUX1tJ/MOFE2UdVjScNgCHOlFLT7W52HlFUtE5aw+JwJnEZXhU4iIqokjM3BU5BfANUdiA9XrLZTgqktwn7iB9phvP6pcGOR6bq/JwI8NeeiR1YGbND0yqxztwkRrKEv7EFTzGuSWLNrQmh6VeoRPxil0niSvWY1ub69YDZMriyxc0xqpDZyntSpTN3k32z8M9KdiNH5DWmsqtYrSyNOaIUi451tjw81JD+EkcT6gPInUk6vjk+XVg8xk0wEv7zyevYOPYFkJ1RO3X75EzWVS3uBQSswld/0Id1LML1/hJpUwvcKh7U8ehYp6HzhRMrRqa/r+/I23zwYpKutHQGkvJhnnIOX7S+qVilWP1YFtODG0eozzMgkSisYPK/rb82bIMwt1zlK77xOyGsP2x2oYG/TTYVMHedJ7FH9DX4UteGd8fDVt/M0J93R1jM/lUwinRHfv0ICi1KcNuqc7FpQePNvo6uUOnlprVc8jvVWF4O5feGD3naVOjnSzFwKAmmsPFYVS1IK3aBVOUPvXLdiDF4Pw8eKzIToy9uBNKVW6PU6P+7c9oFW7JSFciDX36EGe37R6ZXin5qesnedZD36y1MYb8Pk08Pobq/+9gf4hn3R9eP706f5F2Pz/8RMw+tP987Hw9h8=);strokeColor=none;spacingTop=-3;spacingBottom=-3;spacingLeft=-3;spacingRight=-3;points=[];labelBackgroundColor=none;rounded=0;html=1;whiteSpace=wrap;" parent="Nkz60xgJKw_xwo8QLRS3-54" vertex="1">
          <mxGeometry width="29.200000000000003" height="33.2" as="geometry" />
        </mxCell>
        <mxCell id="Nkz60xgJKw_xwo8QLRS3-56" style="vsdxID=119;fillColor=#FFFFFF;gradientColor=none;shape=stencil(nVzZst22EfwavaKIHXh2nP9wxXKsiiK5ZDuR/j6D3APMsJsElbxdUQCbAGbpWXDexR9+//Wn396/C8fvf3z5/I/3//7w8x+/vot/eRfCh0+/vv/y4Q/561388V384ZfPX97//cvnPz/9/Pbv334aI8df//z8r/GGr2/z8uGOOGaF49vbE++a/++Dv76N/9ufX94m+NcM71J+zfBrSnh78jW8BoX5luPb61Fwob0Gxdeg6Fp/DXo9im6PnVxvZ+zoegTs7Eo/Y2d3FMDOruczdnFxD16c72fw6nIm8Pk9E7y5Fgk8hDN4n9PuV579Gdz7dXQLPboIS5dRrQJ8cAes3Qd3gv/44ZMVEjPhNb7Pt959b3UxnL83HM7DbpXgUgIx8S7DdpXqDn/+3rBE5wa/ymsK4BcX0hm/ZpcK4HeXwxm/NhfTGT/GqQSXG9ayq2etkteW7YbJlJzgg5seXeBRYY2ahzM/2MLPDasulC2+SDcImKjN1M+FL0fRAD+5ChvWmkuIH6fm3uF351Fgoisg4DKqIb4cxRm+H640gt8rdxerVgl+aumE72LEKsEH0K8e3ZEIP223X+Y0Xj2Ia09LNg18B9PW89KzBZ+mXbiDF4lB/KR2a+IXVeqwZCTi8ourqK754fR7dSh8xRVAF5OCylrJqciopdIq+4/oGQ+/LRky+Bl9WifZqw4kPx5TZe7RD/ArMqfi6mVXQfOjyKynvQ9w9jKqby3POHtw6DGoEQ4sVRMf7LSIJ2692MmYt+BxudAFHolOiN6h4MfkDhQ8o8MRR93hH+pbvM6BzReDVjwu3uV+xhfjuL4yro2sOz9xqNF7TShz5+/spHGZr0fpWIRnfbAaj/nBKZOhsqNej5IQkbDFN3MMN8ENY8eexcCDstjlT1+Phho2zGyxkoOtaRtnF88fXFRLloQZHjzJiegFnPCQMPAsOupOwgI5dvvmiR+Vr4T1lcezhsmo9GTafab1N3QtxgiEtbPx2bzIqD0TtIZr4is/MMb1AOZaOms4WVcZVPeOtRJxrscSTmvbwbELg/SZ4HH7ZVR7wo9ARGsgfTH+b8JHZav3jlVGtb19LcTDa1pm0p4+0CqhxgeePhOLQaDTFt9QFr/mNHStyn4mvAZbG1olo+LetxrC5tecjMs3jkPxCy6faeV4195aGr6q+Cj8lvsqfgD8C1Y9tnJ7/Jav6/ZPsIVvuL+KX0drzVHFkOQ9q+eoRjSmwvFfRDWio8hrr/DFgZyMz9lb2MBtWb49EbYRoZqLCBtmo0vdMOQDF3FrXWmHG/zC7n2swp/xbXQ98buSgPs4X0b1zYZxoD8c7j4xscKvbypzHczbYAhwwCLN6F1HWgTM69Cf7XmNfAsouOhpB++aNfSf+P0iHwXgwyfv187MWewdSreMOuCwxJL2AOCqcN+Mvd8a15Flg80fjgw331OSozcy7jYRGHHUDX5qDnTFvnjyzqrJrsAfOXlnISr4uHxhtAcu32zsxE8uALOwhxTXKNSVx+NPGqh88yxVio8pEyuhig++5VH0ZfnoWq1ShbWxBU7fKuiER3BU+7OdWMNfo4+HKCuFlSNaVq2TosTq0Kg2inAl7kI5FV95bAVFgnlMWYu5xvg+JOaAB8b3wRMJGAy83O+VTy6ec4Hy1rD9XpmCQbF4nAic1SdK9oo/TkCZfVxJREMa9yGDzInohOSTAD4wacoz2ld4PxnayQdu0Q/KxtRCLnDlUy1lykhZ1D4bxrYnAKTTgwrC1heHG18cLLyw7xUTtyVLmesLeUYXqs9KAs2uw6EbwxTX+e2NqSY7zZEjUQwcJsR1vktF1Ncbmrjd9OAgQh8ksSN2QOxj1XAUmwK0VXW4xcZ8hsSUqGuRswNtUl+z65MBmuB4n01JHJtXTdOsI8ecd9GYevlvig0H191a5cKJiULuu6rp1LxIw9CElFwH3UVmK7tssiKY9xPrEXDfy3Lny8YEtbC68X7jv3xXK/6aEOc77qwSx/EjowVH5QtlSYX7grO1g0zabSuldo76fzSKnlPk6VhR08Lv5MNG2rFt9ksV9DU+uK0pGweHadWLeoaaKc3q+kfZissw3Qo20uKR08VaKXnPUdQLZ/DElb8wB90bUixRmzy9GlLAPlb+S20Z+O3hzrbQOmM+qBeWDM3ocFWPyw75IRYw26kFJDQm5mBuq3d83s/FO/WJWjzDmF1oBfKVECkOueArYcnOnbAHTUzo2rGAI6QK4TPlWLwJFrR6tV+9NwGOEl60DBwFySAMQq/g+3Qsl5YhmNTZ0qK9v01kSEfNHQypfBxG7IEtfzRtJqbQvD2tyIZ89Bxg1BYmR1Z8oe2gJpX4pdjWvtkuOwNM6x1DKJhf8Z5JocmcLNcJ36pFGu05aVsjPuJb2KlGYi2DChhxzZIvcO70KW5PjJgZJdUWDa2x2WYlkk1iAYn4fr/rZOkqHpqKnsBK/tZ+u4ptNpxRwd4qyL499mI99W4d25U1FZLXo0Mtv6YLMFN3aJNTXOLmE64s71NFkVJlYdXSjNJVPk9gL8mk9Bf33ReZk6egrlBrjQzizq2EaZpAHP+JuaVIJQjPhEBEGXm2WIaCazfZTo3vzxUYMDhmxmtCmzW8+906QE4863286AWRUAsUP3IKegR727BE7MdFLwo5CK3Sm24QbB0TucS0YlzLu6a6RQ3/ckVlT3bNFHXAB+ZLChHOYSmRm5smw7mGMnXgDl+TnqZ1qyMDyCRhg9RhvobykMNfb9HZUodIfZE+aowWliB0XH1YimHEJW3FRZSJDLbn+vbKJ9hGw8dQYwzagRftIvX82hVpZNx484FKuS9WvpW7SLW90T8LBt0ooNEcpJ0rb2f4vt/miw4mncWBPTe9NUrrKpgIk+2bGnq4bUndz9je9ithRZ/5W0xU9Ei0bhnUt+CZkpMxa+VP84PYq8UVn8bg+YG7drKMkQseQyEwusyUrLpQtbgY1rVlNC0arwn1wfF67j1Jl4lsTJqI2yocGl1lTfapZLZNOTE+t7blxvhm+ZPDLg99lzVZW/yasEqBG2MGalWSpnc1b3L+XBmDIfxFSi49hPAFq3mFI/ik1QTFRq8buUspP5QcjJnSXGRCJ8JZ2Ip8/6AwZ6Rzt1p1nIGrp7TewbnnSN1sbERH0v1/XPUqjtjUM/fGYAKWvUet0KF+YcgQu2kOSg0ZaEZtxFlY1HTQdxuyMeXCkHFBENNkI4BG+PrEGaLu18THTG666snBWoeMqlhdy2AULoziXKkptWBLlM9UY2IlH2yRi3t+ny5aZYFTQxqgF210nPB8kcQS37hGhY1JtHz8JWFtxmb3+SJSkkAm0QYN99XIi3Ckrl6EO5ZVuBjKtesRNIFhbJ5a2EY0BhsmozYNOXbCa/xTy5mNJGfWplI2NEXKr7VG9dMUOGl0PDWFeGp5M22zZr+w37RHyv2PWB/sWk+u7MPXoNWNib8qr3b9cFyjKQWXn7UvbsK3p0THauBW+M7Lb3SRxB/HGX2kd2Dz55j7q3lY+NC3TmYTqcvBft/ETiSojyvPRemO5z2d+FWtX+DjiWsUJgwfDz4bQu1ZpJTZUSuY5/Xrzb7vFnxZP6VLG68/z2XYfpylnrr/KHmk+JA8NDOuLQt9b1c65dcUTHWWuCI202qI7VNixak3d7VU33VaBHbCeeXmv6rTRdI3JoJhFV6AibHhWHZXL8w9BnVd+2ZavvpQPTluGYUXdYx/jWvQStl8r+NuSX2y8oYOnrutluBTcwrIl4gc8oYnziSy3HH1jdRLtATzPFW7r8w9igqmTUfd3xRC1tS00DDh00ULmQe+2rOaSSOsW/CLPupCZZjeqIs/U4tKb1fNOQ9d/J3bqDWh/lXt+BKqW8mzg+442wU8JhglqMImX/uR03i01ZWyWb4EcWVf3214O1CCQ8yydb6aKlEn343Eoy9PGR8jUyYkx/srKp0rLn6U+ceI3GrTfUxuNVODcuS+rPIlQfqELCQ0g5fHdv9E3di5UW21mZrE9IqJL6dxreP5chp3g48uWbyclgg/eb0RFnn5M3yo4CHochqUwtOUtu+3qTETWbywqZF7sC7kKz42YUXKnds3q1HNmEvNRJl6plr84/qF+dHvOaRVpTSa3cGqX7Tq9MZdTSsBd2/YIuJzba5f9Ckd+pXGsJ7hQ39oi17k3PTr0NWoTvxrJOrwblSnQCnkZ6tawLAFva1lNh8XHzSEsFfTsFspPB2+aVn0aw4RisQ/0eCpMNojVaRHZ8oen6vCMgd/IqJftA2ZFPY0Fn2Zf4XfN2uNLnz8wYeAbTutYKp3NHnxxSgMlvSnE77fUgdq8W4mraglQ+wGaFGVWEuWey4ZucRbqZtx8G2umGLN0I6a8A1yOnAtrGtdaqnz/o78iEJQVyrd4xuBCepKIkN5EStpc/Ndav6ifeKgbC1a6VG2P2OLn8UixugHuN8rO+E1Pj5coctabFpZiED1e4mWMQHkPZGWcdGN+y226I0uBTUqJMggrPiUFTYZbBSsPBX/DrxqcmEVaVuklVNrG7J02faGuZ/vuIgHGn3wrnuqgx90y/yicemUdnrqWvr/B8sf+kNVv3z4+PHtd67s/+MPW8mjtx/Fij/+Bw==);strokeColor=none;spacingTop=-3;spacingBottom=-3;spacingLeft=-3;spacingRight=-3;points=[];labelBackgroundColor=none;rounded=0;html=1;whiteSpace=wrap;" parent="Nkz60xgJKw_xwo8QLRS3-54" vertex="1">
          <mxGeometry width="30" height="33.6" as="geometry" />
        </mxCell>
        <mxCell id="Nkz60xgJKw_xwo8QLRS3-57" style="vsdxID=120;fillColor=#2d5967;gradientColor=none;shape=stencil(lVzdsia1DXyavZ0a/9vXhLwHFZawFQLUAgm8feScY0nT/Y1n92758Jwe23JLasnzIX3z24/f/frxQzx/+/3zL//6+N9P3//+44f0tw8xfvr5x4+fP/0u//qQvv2Qvvnhl88f//n5lz9+/v7tv3/9bo6c//r3L/+Zf+HPt+dGPVqZT8Xzr7dfajti+P8vf3974B9/fH57Irw/Uo76/sT7L7UeNb/99Gd8H5SP9D4o6qA03gel90FrSNIhZQ8djjoYOwL2eeQG4O04+xW8DxuVdFRPHv+nTz+7teqB1iodY/vCPR8BFquMo/TrC/dyZFitko8e4YXdqPefyrkFdw+8/5TLERDcveL7T1kWEMHd3N9/SvU4x2a13Pq+PxCP0Lbbe+perhdO6TjRtOLC1ReWUSWhbamVJhuUt/D5aJ3gC8KXY2SCjxngq41KOv06tvjNngm2ZIjfbScWfjhSAfxxRJy/7Or+dA2af7RNXPjhPK/osauZOfTer+ixreO/QYejEqvNK+qoFAG/HKkCfsfNj3lZyP3id5x8OmDuc1fhoMqgswF60bOr8PHYW76YHli+PJISwIs14uQjm17UVXPweW/64QiD8InUzyPw9ANsvhz8CMQqo/oWv4sNAbxsGOx9b2aftvcZ9l5GZdz8un66gxefVwBffhqEH+Hkie2H/Izfj3HZ/itTNrH8NXs99n17WJq47QAv3I8eri/cZAvxhcsiAX3h6fXGB7SXsV0wcXwB8c/lvBW/NDvSiz0GOeJiJrzwg3DcxrX4JxYprdN788JF3AGwizyTwcCn1wUDF28Nx7sUJBclwDtw47EFztYlgyoGAccAWp9/CcDz2uN7cNyqRLQqc0poKctZG3g+gNbCIuP7VV/kuLBPcihFgrpwxT4B2PFO8iNuYHO3pQzXv7ginGZ8F+nF1spWjT2+dMI521kKtI5RByGNJnLgOZELfdppeQSn7Swo2t+FmTtbTPqG9SttPBuxLHB3dKKuKPKBO4QLHKZNZ/tKBjrcqGPranI84CxOTgJPmxp7upNcjdB0Qk8XHzICWe2CFuICGHOrBfG7kunCn5R7hZ+OI9+vVRCHcI3Jp2vaWnSIbNFdA3ANCiNZ1TQr2FkP71zzdr3kmdhwvQA8sF+W0A2jsrUyPio599mbeQMLijJMvdmcXEwWr+AVN8ritjvq1OjPYUcwk0wsJoPQXyVk7Rmzbffc3t+FwhXyxqA5omJnotBznQYDL8d23qeqBD4LgON5ahbrrA2TgFNpzcVh+xzkpCh0WCas2B3mbYmVWboF6msXwsOG86LLYT6BQJM6EwWPGgkqgXLqlyBVf2FtmHmmI8OOV+KkmR6D62hqKA48b82t28k0cDzkY/GUnzlEktNTEB9eTR34sGuSsSJv9fl3fFTXXzRR5ST+DhIHoKhS9EF9Xzdq7d1YGsAdvntmbV42zxD5LVeYNSw+Tzz9RVRpK4HJCheSC/s+sabAWx4J8L7dnKLJhQ2Wq2mo4AXDfZ5yAIl6FVKjbFyqqnRtRwojQRmzT9Hiyvn8vCOc56iRh1MqB5FJQvCnIOfU3F3Bx1oqx2QRJt5Ok7uURQMweAsPi35ekSULLYOQIeJvyWRcRVZJZCHnBwVPOBb2uzmBwNYcp12NbhZxAHI9tullos1ujUih2FJGHVTBa1UST+agvRhAMq880iAX76o6O/CMqqENsok/8NFJylWrzIeBktu5M+A7JNYLiJ8f8g55poGpiy0lDFbkNAJ8XGHRJjoVUz8vpn5lw2jEb2wYtq87Mz2IbwREw0WLZjK4D1mICkKbODey0/bg6CWxOSFNa4M0bsmREuD3U01cSZGFox5W7PE6V3NPvD8wHmJRSRkz6LKdqUyca4QNnlUgWLCs/KEvPMKKl++T6gYbNiKdLhlV4GwP8Rmc0zfw90OFl3tF4YTTParKek5SaDh/dcyGXyyIckr5ltlky1DCGcOqLQu/0/y1TuBUnBNcyRpzF5UG+6sB/+oi1agSh858UDVIQqTwlRMvhZyJX1ITzgYuvNsek+0wJH/c+FJp8t6kTDWMQKyDMwJ5S1RVHg1/RpU4f3ekFr4VyJQp3PE0iRcFPDr4JPHqEzfUQi/cKOjxpLXiq0gb5gnQNPHGbnhPrTPOQZU3Uw1FnCOqnS2QUiKvpJVQe6Wwodbe0BdN57V9YXkk4AsHiz4jjzLfiVKUh19z0OTwHr8hflGOUPxuW+HiNaw4nhw61LXT9+VmdMWNC47BKi0WOGHWK2eusCt+KPcmrgpYhcs1UqDGM0fh9AuBP5Q7C7m1OXks+FU63c0CCAVvFs7b2u9zhEmlGDFbocLVurExQiykYNTaSdqTg7eXYWd9nA8rpmdjkFubVo3K4rDgduGjDvuq2o1ha+T5D1NTjCwS42PFURK5fa1gzp8zxIH7322Xoo6KILvIKCw4zwT1afsRvvP0G+WJwoKYJ4qRZghDZ6a94covaHr66geubVVeMHh/oGxfKYUDChk1PBStJfzXaG6tof2kiiFHhjXTEU6Vqk0yqm6PUBqWLwWbJEam1kbg8Dvw5xTHUONIgE8BQr6ucBlHL5sHTtySGTvdj88WMurfj7s6lLjOjn//3GhpElmPq1GVBNkjPOD6St5/GcemTJ5cF44u2tgskSSHpSJA3K1ROq4zkGzt2uJFa5Sub5Qj1J/gjVz2owjt8gCZZaAuqtwoqkknFbyz2bMW2Bz/r1A2LOd7l+F342wrgzdQwOaoeMUvVm52+MispW9tJAY0KuGEfZUrDOp8EhB0haEf4ImKNQ46Qbnjem0zvNApBJwJLyp2J7mh1K0YthaL1fRZetj6oRe1B7d/jkOxoXSKeSiHnNxHkx76rsQyqcwXTPi2lcYkT0Z1cMP1JHUjPvWnThUbm+4KhQHN1WCjWibJ89ZsoOufIQa+Gmt1LX/KQLv6dXUCpVHWdoerY9nFEEXNSbPCQoFWyhRlVyqlyqC0ZQPZFPCRYpMDk2jrInPoiZN4VG9kJmmzvsJoWobUY7PbkEluV7YNW3qeHTLgAPI60DfNGqo5/6W/pI3HKJkQymLO1w9UK5EqwkNcUK+aZFGx+i7yAK+a9wD9uLqwErdxgTMZ3fjd+9Rm/dAK8GCVgzJ/mXSA0E2SiAa0kwd1hs9yEDYqPfX6CqG86ExPcCinoAI+UgKOUAgffY5Y7bnrt+zag+hoZy9VuMqE+akI57gn4sliffOulR5LagX7HWnBujUeW6zdkae1YdlliygC10puwopkd9LaMHXHqgbYBCQnCYve/WQRPJKbbMp/dzFdplTHa0AWU5FSFUiqeVXL3edmX5DMwaWagHH07Pp6vNmCgQCXi0eg3n8ZhVGjjMKbNbECRRG+u1RhfTdYZpit5ZCQR6vPeDGMO7DTXg8yUjX4CHHQcO2kBo9dFV5XM/hzK/bP2yLYAF6pK1BG4dWPyEH7yFZXd/h7LTAb1Rk+ErK/oGL4GAePYgVuw9+34IzCDfCV2jdlVOb5U6NdsWYOw3+QYgvJYdP8cf8L9V7NSumL6xe4/+0haZzPoP01zec9Pl8AoPsXhWoHs3t2b3+FksbZ74n2V151hQ7ef+wXierv7/ExIHC5p7O/gcd/YKvMyHaUDL7ul5+vyUVVc/zxq4SOzTKeIwy+7VefKzfzlZn88N7ZXCMm347k+9RjO8kfp9/p7pFzKrb52JI8uPNwmugDeoYcJTbqG5+juMO3Yh0kMPU3yIFBWn32lV/9wNUb+7rzezjxIOEUa0q3KxN4GGe0g/fwLCIztSgAF2pCsyl6o35FqqoMQibMVBeRQaMh+D7O9WXX9ZMRnJXcsQu1kCo/kxxIC8oi1Htw7E2pVJKaM79iV9NrbOJUEXhoY5JHwP827Q9yGw5r3qzRyJocMtbCVsp7pwENq0grdgHwbJcpDBwDLxkUGoLvM8HcuQ5IV4Rn1o5lIBOJkg7CbqQKeSuD027jtN2tTDU1vBT1og+prJz0XnfDWw2F8pnc6RJIJjufnS9AuFpHvF9zzGYS1W1mpk30goLUi5Ya5DYuguy58Mqd3cJC80vbg2RRk3Ol2O7bOI4ZFMexF39o9SUvNpi0XwUwRB90z36+3V7HJZFxzhrtiTo/YscW9vzq8ujDEbaczNx3r4idMHNqVEjOVMd+5M3MV2SqlVF01SlwqtR7Wog4tXv79tICNijNnAn8RTU35FI2arrFznIbdGtu6gwC/121c7qfU+nCcOOIra5uxjs5ipDprjQ1cM6txKYdqm5RsMZ3NQrHilgv4W7+SQuRwHHNO3Q4vQAHbL02btCYoHbqm3WkZsi7ssMzC37teGRZqP1PffRhJbBsJI9Q2cbCPxMI8Z5po1CpYeGdKZ5aiBM1RlaSClqikhVXNJq2yN4eeuqftmuvxnao08yZo+emO67t6fJmxvthc6MwWLLs20TIMRCbVl0Tt1ts7G6cDX7YbWHe10R8vGJQLLKwdqH9LcxC8rM8gvea7ZKjYaM416yeb9hxGx+7pgTDxgb/bjbpJg6r3rV1ya16eLgCSncrAl1H7FSnaIG6xPiuVdMk7p7v0Nb5SmAnWUAGoa136v9tETr0kMKeKOlrxz8l5aM+hc2u+BvwGR83Y3Iqo7BRIXdSaUaB3pgXYTsmLFPqwxPYD7CFUSjWkUFYgxjlwRJfpCyDL/7NUdgOnylLzY2+TjR7y/f804n2h31Uw08f5/+CejlpmrrdlvjnlkXAtxugtvuIHjllGxaIu5LFXpU5TVQ3dOT+mf3j6lsR02VtKFAPvXu00SewGz/aJ8JMHCmInyjanTVJ8D5zj/b4kefPd8JLpEaGF9dgXtwGkFH7AsULYcqp0V4cwtsYhTUalodGeZIEw4HGb5mF234UaTxD3SftxH1PWTs9AAXIgs2REv/sS6yTf9DNJkor/HeqXFiHInQm1VNGPVSA+AM9LVv44KwZu+Ezf4Ar0u2J9vQFquG+5WHzx04sGUUl5sQN6RbwOfz9dZ/h2hgMH4UT/wFE8/YjET7N//Hjc4Fvr0T7roErQmBDfuQKbKAK4Ix1nr5ARvsf6J7fIPV3hmPPq48NIS92H79/JvEj9leMyEkNh9fD3Ui1GPfhOkYiem0n5raTpBmeClCJ8xoddV9/w0uG8xksP1og4fCxH2hSBCrg54McOwq117xafi5/tkA3t2cpFef/1LM7C7t4+CLq/9NHIPfxVTtPvXb2w0Yt+AKyln/YB1x/+PTTT2/ff/X/Hz/4Kj+9fSw2ffs/);strokeColor=none;spacingTop=-3;spacingBottom=-3;spacingLeft=-3;spacingRight=-3;points=[];labelBackgroundColor=none;rounded=0;html=1;whiteSpace=wrap;" parent="Nkz60xgJKw_xwo8QLRS3-54" vertex="1">
          <mxGeometry x="0.4" y="0.4" width="28.400000000000002" height="32.4" as="geometry" />
        </mxCell>
        <mxCell id="Nkz60xgJKw_xwo8QLRS3-106" style="edgeStyle=orthogonalEdgeStyle;rounded=0;orthogonalLoop=1;jettySize=auto;html=1;exitX=1;exitY=0.5;exitDx=0;exitDy=0;entryX=0;entryY=0.5;entryDx=0;entryDy=0;" parent="1" source="Nkz60xgJKw_xwo8QLRS3-59" target="Nkz60xgJKw_xwo8QLRS3-72" edge="1">
          <mxGeometry relative="1" as="geometry" />
        </mxCell>
        <mxCell id="Nkz60xgJKw_xwo8QLRS3-139" style="edgeStyle=orthogonalEdgeStyle;rounded=0;orthogonalLoop=1;jettySize=auto;html=1;exitX=0.5;exitY=1;exitDx=0;exitDy=0;entryX=0.5;entryY=0;entryDx=0;entryDy=0;endArrow=none;endFill=0;dashed=1;" parent="1" source="Nkz60xgJKw_xwo8QLRS3-170" target="Nkz60xgJKw_xwo8QLRS3-111" edge="1">
          <mxGeometry relative="1" as="geometry" />
        </mxCell>
        <mxCell id="Nkz60xgJKw_xwo8QLRS3-59" value="Object Storage" style="rounded=1;whiteSpace=wrap;html=1;fillColor=none;strokeColor=#6c8ebf;align=center;verticalAlign=top;fontStyle=1;spacingLeft=4;fontSize=10;spacingRight=4;spacing=2;spacingTop=0;strokeWidth=2;arcSize=9;" parent="1" vertex="1">
          <mxGeometry x="490" y="80" width="120" height="170" as="geometry" />
        </mxCell>
        <mxCell id="Nkz60xgJKw_xwo8QLRS3-61" style="vsdxID=70;fillColor=none;gradientColor=none;strokeColor=none;spacingTop=-3;spacingBottom=-3;spacingLeft=-3;spacingRight=-3;points=[];labelBackgroundColor=none;rounded=0;html=1;whiteSpace=wrap;aspect=fixed;" parent="1" vertex="1">
          <mxGeometry x="500" y="213.66857142857143" width="30" height="30" as="geometry" />
        </mxCell>
        <mxCell id="Nkz60xgJKw_xwo8QLRS3-62" style="vsdxID=71;fillColor=none;gradientColor=none;strokeColor=none;spacingTop=-3;spacingBottom=-3;spacingLeft=-3;spacingRight=-3;points=[];labelBackgroundColor=none;rounded=0;html=1;whiteSpace=wrap;" parent="Nkz60xgJKw_xwo8QLRS3-61" vertex="1">
          <mxGeometry width="30" height="30" as="geometry" />
        </mxCell>
        <mxCell id="Nkz60xgJKw_xwo8QLRS3-63" style="vsdxID=72;fillColor=#FFFFFF;gradientColor=none;shape=stencil(lZPRDoIwDEW/Zq9LWUHCs+J/EAVZRCATFP/eYYdsAzW+td2922mzMtxey6zNmYBrp5pzfpfHrmS4Y0LIusyV7HTEMGW4LRqVn1TT10fK22xUjtGluY03DOSLOEajScCDCknC482rsif9oVdkCEggeIjGEfgWGASVwChMmsQchVGgqzBpEvLQfrWStUUJDuKb+QMhuHgz8ERnteDyTnDWVBzcVTiNvnFnCN/o9Cyi2CUEFy8Ab3xWB+hLfOJVxFnuI3+AnA1L6kEsG/HJB1zOxkNfBf39Hf/V62D++4WsKlod+9zfFV2iPcP0CQ==);strokeColor=none;spacingTop=-3;spacingBottom=-3;spacingLeft=-3;spacingRight=-3;points=[];labelBackgroundColor=none;rounded=0;html=1;whiteSpace=wrap;" parent="Nkz60xgJKw_xwo8QLRS3-62" vertex="1">
          <mxGeometry x="0.35714285714285715" y="0.35714285714285715" width="29.285714285714285" height="29.285714285714285" as="geometry" />
        </mxCell>
        <mxCell id="Nkz60xgJKw_xwo8QLRS3-64" style="vsdxID=73;fillColor=#FFFFFF;gradientColor=none;shape=stencil(lZXRdoIwDIafprc9aUMpvXb6Hp6JgzMmHsSNvf1gLbQNCHpX4h/88iehDHe34njNmYRb29Sf+U95aguGb0zK8lLkTdn2J4Z7hrtz3eQfTX2/nOzz9Tgoh9NX/T28obN5BjmqIUvCr41Ijtl/4GD17/fGJgiXoXhiXIYgKdBJJ9IcR5ELJVy6SIdzkQulPMHwz6vyEsIGCRN+JlZpgxRfgFEEN6jJV5ClhDfwCqlqEbgvR8S8VE95e5c0wdU8lTFu77cmtIprEdMGIs+v9GPYIGG5GZQ1SBCzHstZPXI2LDhzCZdnkIzB5sy+qt/aCXihxbBuWaZiyyD2C6hZdAghdmp9YSAi21wWYHTyREInb+J3EQHANro5Sh41R8U7TeQLGy2Ih56BQgXbPJWCVPPcenj9c9thDNcp/U5O3Ry5Um5EjErsXPjorLu5Nrr9wV8E57Kq7D0S/k4vjj5kLx3c/wE=);strokeColor=none;spacingTop=-3;spacingBottom=-3;spacingLeft=-3;spacingRight=-3;points=[];labelBackgroundColor=none;rounded=0;html=1;whiteSpace=wrap;" parent="Nkz60xgJKw_xwo8QLRS3-62" vertex="1">
          <mxGeometry width="30" height="30" as="geometry" />
        </mxCell>
        <mxCell id="Nkz60xgJKw_xwo8QLRS3-65" style="vsdxID=74;fillColor=none;gradientColor=none;strokeColor=none;spacingTop=-3;spacingBottom=-3;spacingLeft=-3;spacingRight=-3;points=[];labelBackgroundColor=none;rounded=0;html=1;whiteSpace=wrap;" parent="Nkz60xgJKw_xwo8QLRS3-61" vertex="1">
          <mxGeometry x="4.642857142857143" y="6.785714285714286" width="20" height="19.285714285714285" as="geometry" />
        </mxCell>
        <mxCell id="Nkz60xgJKw_xwo8QLRS3-66" style="vsdxID=75;fillColor=#2d5967;gradientColor=none;shape=stencil(lZPLDoMgEEW/hi2BoVZdW/sfJmIhpWJQ+/j7QklTH5Hibpg598IAg1jRi6rjCEg/GH3lD1kPArETApCt4EYONkKsRKxotOEXo8e29uuucqSLbvruHJ5ed8xwmjgVkJfPUIoh/2TOXqBkOxFkKZ7zhxzTAL/ewDrQbZ7Z7ffwFPadZ+3/p+HdNxQhmL/Bgibb1hBNkhmYxHtSEmCXfYXYbzHmDPE3ECJt8PvmjVTKT8m0vhwLm/Ijxco3);strokeColor=none;spacingTop=-3;spacingBottom=-3;spacingLeft=-3;spacingRight=-3;points=[];labelBackgroundColor=none;rounded=0;html=1;whiteSpace=wrap;" parent="Nkz60xgJKw_xwo8QLRS3-65" vertex="1">
          <mxGeometry x="9.642857142857142" width="10" height="8.928571428571429" as="geometry" />
        </mxCell>
        <mxCell id="Nkz60xgJKw_xwo8QLRS3-67" style="vsdxID=76;fillColor=#2d5967;gradientColor=none;shape=stencil(lVTRcoMgEPwaXpnjiEWf0/Q/Mo2pTK1miGnj31cC6gEjTd9g3XN3jwMm99fmeKkZwnUw/Wf9o09Dw+QrQ9RdUxs9TCsmD0zuz72pP0x/605ufzlapl199d/2D3dXV4AtQRjdVgiO1QN5c+z3m3F04QgKeKV8iYhr4I4OKhX3yOgRLLndP0gyIXlkV3GRVSclqx/xEopTi6sfEYovuWXE2FDGioMMpclPvYzAGRkxtScT0rOxSYlI24mpQ0xPZiN3cuCt7v4xHtlhgmxDkRdlGArCQBCGIQVzmChLkRWEUEwpvos7SCzNHQT4o3+QFSUqy3WBKOcCLENDrMmY81TWlT53W3ClomtCrIUd38oaSGbnJGBOi/X1Oeu2dY8X/R6/VhPkXjp5+AU=);strokeColor=none;spacingTop=-3;spacingBottom=-3;spacingLeft=-3;spacingRight=-3;points=[];labelBackgroundColor=none;rounded=0;html=1;whiteSpace=wrap;" parent="Nkz60xgJKw_xwo8QLRS3-65" vertex="1">
          <mxGeometry x="5.357142857142858" y="10.357142857142858" width="8.571428571428571" height="8.928571428571429" as="geometry" />
        </mxCell>
        <mxCell id="Nkz60xgJKw_xwo8QLRS3-68" style="vsdxID=77;fillColor=#2d5967;gradientColor=none;shape=stencil(lZLLDoMgEEW/ZraEh624tvY/TMRCSsEgff19oaSpNqnK7jJz7mQmXGD1KNtBAMWjd/Ys7qrzEtgBKFVGCqd8UMAaYHVvnTg5ezVdeg9tJKO62Fuc8Ei+okJ7Fl0UP1OFFohU78oxGbQyEwMnqNzNDLxECzzhiObw2QttMKydjP9PxzOQ4AX009wEZy2xAgfx/d5eaZ3SMe3/xiGUUpRY8wI=);strokeColor=none;spacingTop=-3;spacingBottom=-3;spacingLeft=-3;spacingRight=-3;points=[];labelBackgroundColor=none;rounded=0;html=1;whiteSpace=wrap;" parent="Nkz60xgJKw_xwo8QLRS3-65" vertex="1">
          <mxGeometry width="9.642857142857142" height="8.928571428571429" as="geometry" />
        </mxCell>
        <mxCell id="Nkz60xgJKw_xwo8QLRS3-69" style="vsdxID=78;fillColor=#2d5967;gradientColor=none;shape=stencil(pZRRc4IwDMc/TV97bUIFn51+D09x9MbAq7jpt7csDNp0sO18S9Jfwj8JF4GbS7U/lwLUpXPtW/lpj10l8EUA2KYqne28JXArcHNqXfnq2mtzJP+878neem8/+go3ylsbmZs+C9SdIlqpL39HeG2bAM8kLNKHq6Pqmp5hgHVMqxtQYHDvg7vOZV4MBMYEjnqhmNenInELjYxK/o8mEnjTU4JO2/rutIg7nyaD6WLwD5v5dZHx3pHTmdT5fPUE958zZmkIQYYeUwqMp5Cx9a+k1vEYgh8OOfTzHFaxTk5znR4ALjSQMSkzTGvQDSYQzkyJa5VPLeFJ3BvTWTjZuqarEr7zM+JDdIJw+wA=);strokeColor=none;spacingTop=-3;spacingBottom=-3;spacingLeft=-3;spacingRight=-3;points=[];labelBackgroundColor=none;rounded=0;html=1;whiteSpace=wrap;" parent="Nkz60xgJKw_xwo8QLRS3-61" vertex="1">
          <mxGeometry x="0.7142857142857143" y="3.5714285714285716" width="28.571428571428573" height="25.714285714285715" as="geometry" />
        </mxCell>
        <mxCell id="Nkz60xgJKw_xwo8QLRS3-70" style="vsdxID=79;fillColor=#2d5967;gradientColor=none;shape=stencil(nZLbDoIwDEC/Zq9ktILwjPAfRIYsIiMDFP9eli5hw1v0re1Ol5O2DLOhKXvBgA+jVmdxk9XYMDwwANk1QstxiRjmDLNaaXHSauoqyvvSkCa6qKv5Yaa+kHPTA/zu5wXBrewc+G80SoIYXPg4abIIfdymsA+ilEoz2JIlwGuYkdJdAJEF0AVeuqWxJ8c/iaWJb8Z9q3V88GyOWwbfTMPX+2klX+AlWDdfy7alw3Hft5eylOjKMH8A);strokeColor=none;spacingTop=-3;spacingBottom=-3;spacingLeft=-3;spacingRight=-3;points=[];labelBackgroundColor=none;rounded=0;html=1;whiteSpace=wrap;" parent="Nkz60xgJKw_xwo8QLRS3-61" vertex="1">
          <mxGeometry x="0.7142857142857143" y="0.7142857142857143" width="28.571428571428573" height="1.7857142857142858" as="geometry" />
        </mxCell>
        <mxCell id="zrFPuDAYpbhOYHlU18Wa-3" value="" style="group;fontSize=10;" parent="1" vertex="1" connectable="0">
          <mxGeometry x="520" y="123" width="60" height="50" as="geometry" />
        </mxCell>
        <mxCell id="zrFPuDAYpbhOYHlU18Wa-4" value="" style="shape=document;whiteSpace=wrap;html=1;boundedLbl=1;" parent="zrFPuDAYpbhOYHlU18Wa-3" vertex="1">
          <mxGeometry width="48" height="37.5" as="geometry" />
        </mxCell>
        <mxCell id="zrFPuDAYpbhOYHlU18Wa-5" value="" style="shape=document;whiteSpace=wrap;html=1;boundedLbl=1;" parent="zrFPuDAYpbhOYHlU18Wa-3" vertex="1">
          <mxGeometry x="6" y="6.25" width="48" height="37.5" as="geometry" />
        </mxCell>
        <mxCell id="zrFPuDAYpbhOYHlU18Wa-6" value="&lt;font style=&quot;font-size: 10px;&quot;&gt;Files&lt;/font&gt;" style="shape=document;whiteSpace=wrap;html=1;boundedLbl=1;" parent="zrFPuDAYpbhOYHlU18Wa-3" vertex="1">
          <mxGeometry x="12" y="12.5" width="48" height="37.5" as="geometry" />
        </mxCell>
        <mxCell id="Nkz60xgJKw_xwo8QLRS3-107" style="edgeStyle=orthogonalEdgeStyle;rounded=0;orthogonalLoop=1;jettySize=auto;html=1;exitX=1;exitY=0.5;exitDx=0;exitDy=0;entryX=0;entryY=0.5;entryDx=0;entryDy=0;" parent="1" source="Nkz60xgJKw_xwo8QLRS3-72" target="Nkz60xgJKw_xwo8QLRS3-85" edge="1">
          <mxGeometry relative="1" as="geometry" />
        </mxCell>
        <mxCell id="Nkz60xgJKw_xwo8QLRS3-72" value="Data Integration" style="rounded=1;whiteSpace=wrap;html=1;fillColor=none;strokeColor=#6c8ebf;align=center;verticalAlign=top;fontStyle=1;spacingLeft=4;fontSize=10;spacingRight=4;spacing=2;spacingTop=0;strokeWidth=2;arcSize=9;" parent="1" vertex="1">
          <mxGeometry x="640" y="80" width="120" height="170" as="geometry" />
        </mxCell>
        <mxCell id="Nkz60xgJKw_xwo8QLRS3-73" style="vsdxID=55;fillColor=none;gradientColor=none;strokeColor=none;spacingTop=-3;spacingBottom=-3;spacingLeft=-3;spacingRight=-3;points=[];labelBackgroundColor=none;rounded=0;html=1;whiteSpace=wrap;" parent="1" vertex="1">
          <mxGeometry x="650.0042857142857" y="213.66857142857143" width="28.92857142857143" height="28.92857142857143" as="geometry" />
        </mxCell>
        <mxCell id="Nkz60xgJKw_xwo8QLRS3-74" style="vsdxID=56;fillColor=#2d5967;gradientColor=none;shape=stencil(lZhLctswDIZP4y1HIEiQXKfJPTKN03jqxhknadPbF6qoBwEbsna2DMjQhx8Paod37y+Pb/ud794/zqef+z+Hp4+XHX7beX94fdmfDx/8aYf3O7x7Pp33P86nz9en4fvbY2/Zf/p1+t3f4Wvwg67rfXz3d/hO4HL8f+VhMD8eXg1zTK7AdfOcW2tyREvr75/nIRio9snF6lGvYHQwuHRffjSqJvU7oiu+mmA1IefHG9VL6B2l65EWdCk2wXp0UK47JJIO/J943Z7SHFJlyX/pLRqV1cSCHbxvWVCYgNUr4F1ILQ1CRQPAFYMG+SbS7rol5pstFTAVhATAyfdCD8vHG/MfFIEiCHDyJQAJvw22ZvLG1G7RDf9xS0EJU1IAbBEs9T4/shc6YHYBWgrMO8mqkBXZBrup2Lc1klZhLNGumBC87Ay99IvAgC0Dii4HwQAVA65MtLIr65YrPxsYPEqHvrcYxcYCEIXRt69sFkZoWbBDyqIqouwMfXNFURekaOTsOoOGqPdxHtzSRWxbRU0FotpjkJJYPuEoAVIQOgFh2ZnxSgLWev9KivV0WRFRVqpTKlWzcxHUNEBcJ2SxmLCLEVJaItPYngdIVdxNS8HGHUKZtxsK60CzQ4Md/6yUFO3JLOsPXDQegFT6M/dfs32RVCqODrNSRfPKwXWieREImQaXjFFDLeccxxtetI6Kc2ERGsMhgNtmvykcVOHw08ZgQUZdAUuI07owW/kpGxI1okDt7WjbVrciID0iViQK0FivFAC0PZr1HY1mBkmkkeUdzekDdGEWZ4EZosJMXo/jqHovdXb3CFIXsZgOct9inRsildYscqvzqWCwOGv5izLxLHOKJuyoRM06LyBok6LNOi9yAUxyDeZdEoy5JZTEm4pp3aqUWQaDnS4C3k+9v7nGIDvLWN89uWAePlEeNWh0mHuHOHr2yRGMsbSE+5QbtSqaYi8oyxqUflww9MZa32JOm4IhFYx6VjUGxVFmyW/a2QViUohJb60quWsjnh2K4aB2COjMA7NeUlaOgRlU54DxWHfZwavUe+GgNkJUx2duCiRfp4jj83wknPfBoA+Osm+JaHWjMxtjkbxZ6WDcX9mz0nFTPCtTI6vOznI3tc0ekvZ8qp1pozqpL4cn6mTPos/GhqD1xJo3Hbau1Tc48If5PePz4XgcXlMuf5fvJfnS8E4T7/8B);strokeColor=none;spacingTop=-3;spacingBottom=-3;spacingLeft=-3;spacingRight=-3;points=[];labelBackgroundColor=none;rounded=0;html=1;whiteSpace=wrap;" parent="Nkz60xgJKw_xwo8QLRS3-73" vertex="1">
          <mxGeometry width="28.92857142857143" height="28.92857142857143" as="geometry" />
        </mxCell>
        <mxCell id="Nkz60xgJKw_xwo8QLRS3-75" style="vsdxID=57;fillColor=#2d5967;gradientColor=none;shape=stencil(nZBLCoAwDERPk31tjuDnHoLVBmsrtf5ub0sQRdzobiZ5ycAA5pOuRwVSTMG7Xq3UBA1YgJRktfIUogIsAfPWedV5N9uG/VgnMqnBLenDxneZEOlGip09u4pRQ/aG/gTPhFf0Gf8J/otGcdXRkjHc5n3/rC+OuHosDw==);strokeColor=none;spacingTop=-3;spacingBottom=-3;spacingLeft=-3;spacingRight=-3;points=[];labelBackgroundColor=none;rounded=0;html=1;whiteSpace=wrap;" parent="Nkz60xgJKw_xwo8QLRS3-73" vertex="1">
          <mxGeometry x="17.5" y="11.071428571428571" width="2.5" height="2.5" as="geometry" />
        </mxCell>
        <mxCell id="Nkz60xgJKw_xwo8QLRS3-76" style="vsdxID=58;fillColor=#2d5967;gradientColor=none;shape=stencil(nZBLCoAwDERPk31tjuDnHoLVBmsrtf5ub0sQRdzobiZ5ycAA5pOuRwVSTMG7Xq3UBA1YgJRktfIUogIsAfPWedV5N9uG/VgnMqnBLenDxneZEOlGip09u4pRQ/aG/gTPhFf0Gf8J/otGcdXRkjHc5n3/rC+OuHosDw==);strokeColor=none;spacingTop=-3;spacingBottom=-3;spacingLeft=-3;spacingRight=-3;points=[];labelBackgroundColor=none;rounded=0;html=1;whiteSpace=wrap;" parent="Nkz60xgJKw_xwo8QLRS3-73" vertex="1">
          <mxGeometry x="20.714285714285715" y="11.071428571428571" width="2.5" height="2.5" as="geometry" />
        </mxCell>
        <mxCell id="Nkz60xgJKw_xwo8QLRS3-77" style="vsdxID=59;fillColor=#2d5967;gradientColor=none;shape=stencil(nZBLCoAwDERPk31tjuDnHoLVBmsrtf5ub0sQRdzobiZ5ycAA5pOuRwVSTMG7Xq3UBA1YgJRktfIUogIsAfPWedV5N9uG/VgnMqnBLenDxneZEOlGip09u4pRQ/aG/gTPhFf0Gf8J/otGcdXRkjHc5n3/rC+OuHosDw==);strokeColor=none;spacingTop=-3;spacingBottom=-3;spacingLeft=-3;spacingRight=-3;points=[];labelBackgroundColor=none;rounded=0;html=1;whiteSpace=wrap;" parent="Nkz60xgJKw_xwo8QLRS3-73" vertex="1">
          <mxGeometry x="17.5" y="14.642857142857142" width="2.5" height="2.5" as="geometry" />
        </mxCell>
        <mxCell id="Nkz60xgJKw_xwo8QLRS3-78" style="vsdxID=60;fillColor=#2d5967;gradientColor=none;shape=stencil(nZBLCoAwDERPk31tjuDnHoLVBmsrtf5ub0sQRdzobiZ5ycAA5pOuRwVSTMG7Xq3UBA1YgJRktfIUogIsAfPWedV5N9uG/VgnMqnBLenDxneZEOlGip09u4pRQ/aG/gTPhFf0Gf8J/otGcdXRkjHc5n3/rC+OuHosDw==);strokeColor=none;spacingTop=-3;spacingBottom=-3;spacingLeft=-3;spacingRight=-3;points=[];labelBackgroundColor=none;rounded=0;html=1;whiteSpace=wrap;" parent="Nkz60xgJKw_xwo8QLRS3-73" vertex="1">
          <mxGeometry x="20.714285714285715" y="14.642857142857142" width="2.5" height="2.5" as="geometry" />
        </mxCell>
        <mxCell id="Nkz60xgJKw_xwo8QLRS3-79" style="vsdxID=61;fillColor=#2d5967;gradientColor=none;shape=stencil(UzV2Ls5ILEhVNTIoLinKz04tz0wpyVA1dlE1MsrMy0gtyiwBslSNXVWNndPyi1LTi/JL81Ig/IJEkEoQKze/DGRCBUSfAUiHkUElMs8NojAnMw9JoamZnqkFimJTPKpRjTU0wKPUxETP3IR45TBJYlyBaTTRTiZPIZCBCOi0zJwcSDwhy6NHDFAIEqnGrgA=);strokeColor=none;spacingTop=-3;spacingBottom=-3;spacingLeft=-3;spacingRight=-3;points=[];labelBackgroundColor=none;rounded=0;html=1;whiteSpace=wrap;" parent="Nkz60xgJKw_xwo8QLRS3-73" vertex="1">
          <mxGeometry x="11.071428571428571" y="11.071428571428571" width="5.357142857142858" height="6.071428571428571" as="geometry" />
        </mxCell>
        <mxCell id="Nkz60xgJKw_xwo8QLRS3-80" style="vsdxID=62;fillColor=#2d5967;gradientColor=none;shape=stencil(jVLbDoIwDP2avZLRBtFnxP8gMmQRGRmg8PeydAmsBsNbL6c753QVmPV10SkBsh+seaqPLoda4FUA6LZWVg9LJDAXmFXGqoc1Y1tS3hUO6aKXebsXJppLpBsBOVMaS8pvhL2PlsAxtdM0Onl8HA7ICVhhhnUm9hjkGAxU7LCucF8AiPAS0m6U+YoMORNG+ZfREZxDTmaTmdwqwhBxyCIzuN0Z/Eriq97zyH6z0e3hn1+C9WQq3TR0cds+P7GlROeJ+Rc=);strokeColor=none;spacingTop=-3;spacingBottom=-3;spacingLeft=-3;spacingRight=-3;points=[];labelBackgroundColor=none;rounded=0;html=1;whiteSpace=wrap;" parent="Nkz60xgJKw_xwo8QLRS3-73" vertex="1">
          <mxGeometry x="4.642857142857143" y="11.428571428571429" width="2.142857142857143" height="2.142857142857143" as="geometry" />
        </mxCell>
        <mxCell id="Nkz60xgJKw_xwo8QLRS3-81" style="vsdxID=63;fillColor=#2d5967;gradientColor=none;shape=stencil(jVLbDoIwDP2avZKtFfEd8T+IgCwikAEKfy9Ll7DVYHjr5XTnnK4C06HO+1KAHEbTPcuPLsZa4FUA6LYujR7XSGAmMK06Uz5MN7UF5X1ukTZ6dW/7wkxzsbQjIBdKlaT8Rtj7ZAisqJ0k0dnhVTggZ2CFBbYZ5TDIMRio2GHd4K4AEOElpPWUuYoMOWNG+ZdxJTiFlMwl8+gLwhBxyCHz568MfhTxRe85ZH/Z6Pbwv6/BdjCVbhq6N7/PD2wt0XFi9gU=);strokeColor=none;spacingTop=-3;spacingBottom=-3;spacingLeft=-3;spacingRight=-3;points=[];labelBackgroundColor=none;rounded=0;html=1;whiteSpace=wrap;" parent="Nkz60xgJKw_xwo8QLRS3-73" vertex="1">
          <mxGeometry x="7.5" y="15.714285714285715" width="1.4285714285714286" height="1.4285714285714286" as="geometry" />
        </mxCell>
        <mxCell id="Nkz60xgJKw_xwo8QLRS3-82" style="vsdxID=64;fillColor=#2d5967;gradientColor=none;shape=stencil(jVLbDoIwDP2avZKtDRKfEf/DyJBFBDJA4e9lKYatBMNbL+fs9HQVmHblrdUCZNfb5qk/Ju9LgRcBYOpSW9PPkcBMYFo0Vj9sM9Q55e3NIV30at7uhZF4sXQUkBOlSlJ+Jex9sARW1E6S6KQWggoZcgRWmGBDGpFjMBhjR3aFLwWACM+hrD/aUpKhaMw0/0p6Cj9R5pO59EfCEHHII3PoL22rMPFd73lk/1mZ+vDfz8F6NIWpKro5v8+PbC7RgWL2BQ==);strokeColor=none;spacingTop=-3;spacingBottom=-3;spacingLeft=-3;spacingRight=-3;points=[];labelBackgroundColor=none;rounded=0;html=1;whiteSpace=wrap;" parent="Nkz60xgJKw_xwo8QLRS3-73" vertex="1">
          <mxGeometry x="3.928571428571429" y="14.285714285714286" width="2.5" height="2.5" as="geometry" />
        </mxCell>
        <mxCell id="Nkz60xgJKw_xwo8QLRS3-83" style="vsdxID=65;fillColor=#2d5967;gradientColor=none;shape=stencil(lVLREoIgEPwaXh24q4xns/9wEpPJxEEt/fskmBFocurtWHbdW1yCWV8XnSBA+0Grm3jKcqgJngiAbGuh5bBMBHOCWaW0uGo1tqU9d4VhmumuHuYLk9XteMK5UQGdLcIofZ/Pln4ZteUze52myQGcgIUKOkEEzLCKmONgzHHAftN2pTsAIEEe2vqrOYiGpn5a9BlfXI3JMfSNokZB/a0wZPwUMwrpvxt8rhQ/90bM6K82sv2nBMuwFqiSTWP759/HhVsgW1bMXw==);strokeColor=none;spacingTop=-3;spacingBottom=-3;spacingLeft=-3;spacingRight=-3;points=[];labelBackgroundColor=none;rounded=0;html=1;whiteSpace=wrap;" parent="Nkz60xgJKw_xwo8QLRS3-73" vertex="1">
          <mxGeometry x="7.5" y="11.071428571428571" width="3.5714285714285716" height="3.5714285714285716" as="geometry" />
        </mxCell>
        <mxCell id="Nkz60xgJKw_xwo8QLRS3-84" value="Integration Task" style="shape=process;whiteSpace=wrap;html=1;backgroundOutline=1;fontSize=10;" parent="1" vertex="1">
          <mxGeometry x="660" y="126.5" width="80" height="43" as="geometry" />
        </mxCell>
        <mxCell id="Nkz60xgJKw_xwo8QLRS3-85" value="Autonomous Data Warehouse" style="rounded=1;whiteSpace=wrap;html=1;fillColor=none;strokeColor=#6c8ebf;align=center;verticalAlign=top;fontStyle=1;spacingLeft=4;fontSize=10;spacingRight=4;spacing=2;spacingTop=0;strokeWidth=4;arcSize=9;" parent="1" vertex="1">
          <mxGeometry x="790" y="80" width="170" height="170" as="geometry" />
        </mxCell>
        <mxCell id="Nkz60xgJKw_xwo8QLRS3-86" style="vsdxID=21;fillColor=none;gradientColor=none;strokeColor=none;spacingTop=-3;spacingBottom=-3;spacingLeft=-3;spacingRight=-3;points=[];labelBackgroundColor=none;rounded=0;html=1;whiteSpace=wrap;aspect=fixed;" parent="1" vertex="1">
          <mxGeometry x="799" y="213.66857142857143" width="34.52" height="30" as="geometry" />
        </mxCell>
        <mxCell id="Nkz60xgJKw_xwo8QLRS3-87" style="vsdxID=22;fillColor=#FFFFFF;gradientColor=none;shape=stencil(lVbbVhsxDPyafdWxJF+fKfwHB0Kzp2nCCaGFv6/T9VXZC7xtHMkjj8ZjDXz3tn983Q2k3i7n06/d3/H5sh/4x0A0Hve783iJXwPfD3z3cjrvfp5P78fn6ffr4zXy+vX79Oe6w8eUpy1YvGaR+pxWUKn/vx+m8Kf38xSPKUGB0ikB+wz1QdMCM9iQYtJSCEAuRfG0RAEUpai0FDwos4ZOBN736MEC6x4fAzgBHyuyPXwTlNG7gx/GY8NTEz0tGA2Wl+PVt4KB+h4YBcGv8aDAm54GjRBMT4MB7llgDWgECwQUehp4tf/I4FwP3TSydECDF+DkwMgWGCDTg8eikx6X8GO7scfHRlsZTAEK/Fh4EAI0lfdcEYK2qwJ0wCzgFegg4EORW1EgOHF6jtQLAeaYBfCYYQV4s229fLSNXcj4MnbUDm5ia2DaxNZg+JvgtlrFMngUmMQuuszYHlgozsHqTWvuVYZmQCG36KJenLsRRQIyBCgavmI40TIo++xMsCzTEihhjKpskMu0kRBhjNEjhC07yleg3goGvXopY44VptBctwTlGJR4FbD4YoVnMIKlaBOJuCX4iCXfJFMcsuBrcBLfFUIK/owpbL1KHsHI4/viqxnfu2q12SeiJIRKggLre3wqe80qpc0oCUavJGC1UGFF82+f6l8zXaqe396Uq5kTCs3zCVEYfT06i2eB8PYEWO4Liob7KFvfE24RHIqG18RMeI36uuDanelWyiv4XM+yhN/z1Wakk24ZaJuChXUtC1ZllCoWakHUaznPJtW+NzzUhOr4Gf32zTbRV0W76mTJt+Mq9zGzVG2Ot/GjjsYv4+EwTdbt/3KUjkvTGM73/wA=);strokeColor=none;spacingTop=-3;spacingBottom=-3;spacingLeft=-3;spacingRight=-3;points=[];labelBackgroundColor=none;rounded=0;html=1;whiteSpace=wrap;" parent="Nkz60xgJKw_xwo8QLRS3-86" vertex="1">
          <mxGeometry width="33.69809523809524" height="29.17808219178082" as="geometry" />
        </mxCell>
        <mxCell id="Nkz60xgJKw_xwo8QLRS3-88" style="vsdxID=23;fillColor=#FFFFFF;gradientColor=none;shape=stencil(pVnJchs5DP0aXVkkwfWc5T9SiTNWjWOnFCdx/n6g6eb2oCbtyk2iAD4S2wOoE737cf/p+93J6h/Pl6d/736fvzzfn+j9ydrz4/3d5fzMn0704UTvvj5d7v65PP18/LJ9//7pKnn99O3p13WHl03PkzJXJav/bAtWUfp/4eMm/vnnZZM32+9BK+92DQMq+sXuQlEZvwvtS7yyq73QvqKVC7vQvmScimGGzjopjujGKwfw0SidRngTlMmAb1TIgB9UiFN8q4wB/Ciuz1KZAD+pZACflPeAn1f3ZwEP+FWn4ievCPAtg8URPyXlaMS3Wdnc4z+cH7tgSfxz8di2QiV8bspnNs0YXQ7DCxScCjQqVO/eVjDK2FHBlFsdmDBzAI8W9EZlMKBVCeKX495iAEsHNqnjAKqhYeTOLYCq4Sb4MoCDPrZVL14jIJnpaTsVUy0e4njakJWG07IjtR9PG0iEW0bnIr7nAybADwLfs7cy4HdJuYO5oBxYq0kd4DvdComRO+9gxJdF/O6ULbcwWpb356zNUO56y5bcNspCueu9RFKKDvw/BkyvAWxxW17Z+CZxB7trFafh2Liq+EdST1QWSh9BIBpSwY2GIFPY4QCZScZCIpAWvMP04bHuJlF3WSoDvg2LosUkkyEQbbXWLBD44BF4h8E0JCKbhKb4fA2kPWl6toiJAN9KazE1ux1uX4WO3N5VYyP2LeBcXtbg1OrJa8G75D4Gdwr5XmI7hWy/guaeJSyhY20sOmzsdSjXqlGLz6LV4NzygO4FUbmovB3R2VlhBOf6jDzFK/a4MvQKOw4cdiWP+wtisYLYZDzf4BUraKVroAlkbp911XBDf+4aa2wrE4b3oqTOhLl+mb8QXjQ618YNwkerDMzF/Ao5K9tUDnAD0RNLiB0njkfaFKxJvg0yhTVrMHdJiz1LkXl9vei2nXQMElsWqyU4NQo+BpfN7Q1w23j0leBWziYS/MrPWKZlZ2tlpVzwc26DQ1miNnE1MsxYK+vE0/jZ1d6pprQvoXuE70S0W9ko9p1H6w9wLmRmxfZgZXqe98DtJG/PozOQlBMkxa6AauY1XH0sDHooCh77iKmwh3Zv1U3O5a+etH+nkGqVOA6zqlJCXJIiN1gBE0zOI+xUgxmW1Lz/JTkOdfHbiqp4/dB6BL8xDBWZoxATzXfbtPBlllVNphfPgcm97d4hKEKz33h1ofoQUuG7tyGSUnTgdpibO439PHZBQKlrcg3q1ANn6SjvG0cW43CDAAd2OC7Ao4htw0Jt04ybKHD1GjPBzSdDtmuKb0JI2MY4NzV6Da5XPhzJ/XGYBAXdqGBPLujGhbyFFnNholsKs+LYR0NVmKZFCiriUCifsviikJQmihY9cpuJ9WD1OMI6Bt9i5eNM/0h2PJOyFCHne+gwRVbS6HEzz+Hy/Fykl0/N8qWu6fQvdTgAsRTWvP49r43c87e3/lWt0jxO/FxVDHhXC+P2M0Th+WNTLSYO/tD+S/h6fnjY/orof8f/Hnhp+9+CPvwH);strokeColor=none;spacingTop=-3;spacingBottom=-3;spacingLeft=-3;spacingRight=-3;points=[];labelBackgroundColor=none;rounded=0;html=1;whiteSpace=wrap;" parent="Nkz60xgJKw_xwo8QLRS3-86" vertex="1">
          <mxGeometry width="34.52" height="30" as="geometry" />
        </mxCell>
        <mxCell id="Nkz60xgJKw_xwo8QLRS3-89" style="vsdxID=24;fillColor=#2d5967;gradientColor=none;shape=stencil(pVrbctw2DP2afdWIN5B8TtP/yDRO7alrZxyndf6+2llRBHGw4O70zVEgHhDAwU17Cp9+PH75/nDy64/3t9e/Hv59+vr+eAq/nbx/enl8eHt63/46hc+n8Onb69vDn2+vP1++Xv79/ctZ8vzX36//nE/4uLwXl5DOL/n11/6gLPny5PeL/PPTC5N3tFT6fy+ksHjjhfUu4eX8X1x+Fdr88fPtcl/X3ih5f2N/EvcTPvx+RD9zfxJiU2L9CPu1XL/W/iisQlUJ7cIioH3tB+9YLo3YPiN2WmIcsSfAtCQ/Irs6wh5m911XAdvU+NVNYMNuqoc6wtZ+qu9WE+aucOMQllXcuE78HJgb251XAZ0Xl6fQZYllhM6LiRx9P7ZZAq4dmW38EcsCO/mlhBF7tZATM5Pj8j22NzqRgBWYTOIWTHLLWk1MKl2rpsaImV2PzxZcwQLNjH2MXMLG2YN/XVwkNtrYme7dsIOATsBi2sKzCOgkoQlDy5Fp69J907HltbmUhS0ZZV+bkE9lEcipLkkgg72V+Io2n5SojoAcIMYQGT09QY7MQdeQY1xcGJEJUmdkJGnWXm3sLe9UByEu42zLciQKxhbiEj74nmzCIWUnb56XG34cwb0SaGD1zRpw9WRf3XuoGy5Lu7st1gS5vcNSyax4KGRhO6SYUrS2gip8HjxY3WGkh0nAFdkghAwu34q/wN4Kjoy33tW1J3aXNm8Dx7YxM77JPkUFyNAGTl4oLAh2lepiARSp0UQ+w/nRNNFWKMjd9QKrardoRKiRfYO7fTB/AbzsRbPvTBfL+1rSsVdISaFr2t+jzER6vGgC1UO5fjYvJEd/aqmexpkmZEOUlZxdbzLPJiCWdTyxanWT6rT2AnOkJLvzJmiQlDFnC/aDTS19YwrNIot5GSKQQNeeHR0euyMVHPG2MiVrR8nQLwRnEbKCrc4V0tYXR6RNX2mswjJJq0AF9JXGcjNwpaXjx7Z6g1OSzyMyp88xNhkxPmHbyE23juzZeikrYCtk3eDtQgNZcV8I6NKp7w926WQfX6G0zubmAm1AxBaE10d/2HUWE13kWkywtsrhsY29EcabhOwlNn+1NiRbBEpgq+k6h1hV7voqI1EU+tI6zTY0Ay/MDA6PbTsFVi4OY43INcAkaBW3yih5UxDeyaGp+MhQYk32/kQWFRiicbqgCGGWMe/RLQM8TTs5Ub+rM5Vl8m2PJUahLNZnlWDgZpW3eb1YqJwMDRXrqDL4Ht47poE+rYRR5Nrsh0mgH9oGHtwkVdyeeVxx2Lf2yGdmyz77yfRzOCSgSNCcLCK+ym4UYh4mxQrkDwXIz+/TLAexoVgp2MM5rkQC7r8CiyDmNTkrQnQEuXOHvQjukwPuJiLrTA34DLsJwBezKsxJ05Y0ZljJ9ne4wllwiUtdt9cMPuC6UoH3WFTjCqESYKFhtStcvEnPtvZY1KLIdkHZtilLLzAUjDLgp9qTpMODW87DsqDAJ8VSNNk0Rki5jZcHtuKkCptG/ECTzAqTlC7GIaFw5ZUcrH7A6slNNo1Ky+dkylXSfcIOSklkcocB4Ya5JMpvUyKJxaKwAhtNqwVgL+yXKRM1IxiJVlzHYqtHAfwj96FkfutIAZbQx5l97y4TPfkRlnAZSWZIKsPhcWbDwAQvb0u4f532hnw10HtD2dEzM7ZH846LJptnpeciJf9g+qM85yFNvhsqPCRYeys8JMx9Cg9nV1d4SAJb8hB7ceQheHvCwzzZkCs8zDifKjzM9ST9I3m4i9weG1kkKmWplQkIAZ+To7kVng9Xd78wG9+K/cUX+Vlw6lUIWvD7jMLRMmu8FUcUmRCRoQV/0IAULbPcpHC0KI03krSIxKgwdHpxhaIFuwTJ0qKUaaDp6PEJR+tsL6KQtOJWk3fFbYpL2ngieVrlsgMiFLcLVflGnyFJVFk1lfFVXn7GPsu0M+ntj/7DrW9Pz8+X333x/5c/9NoeXX4kFj7/Bw==);strokeColor=none;spacingTop=-3;spacingBottom=-3;spacingLeft=-3;spacingRight=-3;points=[];labelBackgroundColor=none;rounded=0;html=1;whiteSpace=wrap;" parent="Nkz60xgJKw_xwo8QLRS3-86" vertex="1">
          <mxGeometry x="0.410952380952381" y="0.410958904109589" width="32.87619047619048" height="28.35616438356164" as="geometry" />
        </mxCell>
        <mxCell id="Nkz60xgJKw_xwo8QLRS3-91" value="Oracle Analytics Cloud" style="rounded=1;whiteSpace=wrap;html=1;fillColor=none;strokeColor=#6c8ebf;align=center;verticalAlign=top;fontStyle=1;spacingLeft=4;fontSize=10;spacingRight=4;spacing=2;spacingTop=0;strokeWidth=4;arcSize=9;" parent="1" vertex="1">
          <mxGeometry x="990" y="80" width="120" height="170" as="geometry" />
        </mxCell>
        <mxCell id="Nkz60xgJKw_xwo8QLRS3-92" style="vsdxID=4;fillColor=none;gradientColor=none;strokeColor=none;spacingTop=-3;spacingBottom=-3;spacingLeft=-3;spacingRight=-3;points=[];labelBackgroundColor=none;rounded=0;html=1;whiteSpace=wrap;aspect=fixed;" parent="1" vertex="1">
          <mxGeometry x="998" y="213.66857142857143" width="36.25" height="30" as="geometry" />
        </mxCell>
        <mxCell id="Nkz60xgJKw_xwo8QLRS3-93" style="vsdxID=5;fillColor=#FFFFFF;gradientColor=none;shape=stencil(pZbddtsgDMefxrc6SEJ8XHfde/Ss6eKzLOlx0y19++IZsMEnJF7vsKw/PxCSoOOHt/3T664j9XYeTr92f/vn877jbx1Rf9zvhv4cRh0/dvzwchp2P4fT+/F5+n59Gj3H0e/Tn3GGy6RjDQpHFamPyYJK/fv+Prkf+mPT3QsYbAgcOFsKCIxrCDzorYL4OwsQtLkuIARnviYQD7YhUJucgUp3ASdL9x/vw3RimAQuHUG0aAPRcqE4yRzEaGELHEEXjidNYCV6RRMTeG7BUQPbks4IXko8Coiv+KqCC1hfwsmBau4cK3I4GKKSPEZHSnIgpSUnOIWAYQkPwdC6BQ+rY13ycc1nBbaKPAYTl3xm0BU+O13BLysP1xNT9tJ4Gy+gaCtf8l5b/JB4dA/f8Fa+BZLbfAfG1PwKvugX0eRAmkevOVXFnPSQkjGhtQdXkivwWNi2BKsW1WioE16VSLtoTLnwDZZYG2qxznWd4n8FbU1uFjnYJpd0xtsc/xzsXMIz34NUXQZvBdyFluIqvgeqIu7WyR7KX/uS7wyYqtiIAH2L78NmTcmn3MXnLqdUSdfr6HsNUqW61G2uvA+CApPirgvELprZfwpuXIBhxbzRX0r/9hUe1iu4RWAWt9Bdz5C1YOMz52vuYTA/wF76w2F6vy3/1w+2YJoee/z4CQ==);strokeColor=none;spacingTop=-3;spacingBottom=-3;spacingLeft=-3;spacingRight=-3;points=[];labelBackgroundColor=none;rounded=0;html=1;whiteSpace=wrap;" parent="Nkz60xgJKw_xwo8QLRS3-92" vertex="1">
          <mxGeometry width="35.41666666666667" height="29.166666666666668" as="geometry" />
        </mxCell>
        <mxCell id="Nkz60xgJKw_xwo8QLRS3-94" style="vsdxID=6;fillColor=#FFFFFF;gradientColor=none;shape=stencil(pVjbUtwwDP2afdXYlq/PtP0Ppixlp5RlFmjp31dp4puctRN4W4yUY1vS0ZEPePPycPt8PCjx8no5/zz+Od29Phzwy0Gp09PD8XJ6pV8H/HrAm/vz5fjjcn57upv/fr6dLKdfv86/py+8z37GgMPJS4m/84oC9P8Xvs32398us4Oc/28RrF48JHMR72pecQKMWYziEli1GOGyokHKxWhZkgaC6aE7A7IGlz6uJHAL1tfgMoCzDN2DNzW6EqB0D91LUMjOLuKOE75H0DW8khBkDe8NGMfgMS5dgQ8avK3hUYBjxw8ehKrxtYkHS/hBgQ81vrEQSvjH01ORKeSgosNiH29+1Z6ii/JT9p4i1HGg7Tq1y8HlfEtnqpOdOfh8R5scrMo5lUK2JN5WB9qk3rWlvgMGQNzlYFI1f9ihf+iVLfWvVROb7AocOYRduUSlh7tyqXWgyCynWncA6fbZI7M3sdKvsIOCwMhBW9DIuDEX2bKCPhFR5AapQcQALUuoY/VfQSfm9oyZETkzS8qkwOAL/sRkZRg1KT+gRuoCxtfw05XrGn9awhpfRtJL8HRHwtfwcnR6FUCZGl42p0cJmhGzVE1XpFtz7PTZ6go8RQcDgy++rJKV431xBb8o5834RTPr4FMGuy34we3Fd+D49a/gBzA8+hIsS36dO2rCH+kCrcGy2is67oJlRI1dqKbYgAsxhsxovRsM1dtI7YnusQJoVtOiPpMmqcNSKqc9pmtHdqpRNU+cxDRmIeBUCjoyjZkD1U2nUTjLRJXtl3M6G57Oq/hc543xNQQ/xi+KvoO/QidD/FbmruBTFFPSZ3xO5sqCaulEdvFJUzflzDQ20TbLO9LYkjE59STLSlnxrrvSx3jOI0t66gaa8chE7cjAEYSuwXE0WxXlmZmNNzGRA5rlvWNFR+GqsRv5UDNJ5KZN2qQ2tqL75Ub4jOwloP6cgw8gzB6HkMK3UewNHNBmLbbNoajlpHB9T0MjsB3x4XFkbxgJjOwd68EDeylEx5qmeL/DPGTZtsGcstdtt6YRzJod5jrpio+ZDy5yxaEfqRUH7I4ulnq25g49ewG+vs+QVNP6JI98+ho5mGao3etAJa86jxetw4BUaAP77DEPDVsdbO1gSJ52EoOGajWYIJteJiJTR0FnklxLr0U2Z0PspGkj+bXKAkZCi52Uh6h5LNN52EuNvQb3MudubK5p7s4vdYnOs4RgT0nNM6FLuj4pCNcMBM7mJ62sK/hAQLljuYLqv1EWU2Zu7GwYtK2IEDXuyjTQI72+tKcf+Qn4/vT4OL8gl//nT8a0ND8349d/);strokeColor=none;spacingTop=-3;spacingBottom=-3;spacingLeft=-3;spacingRight=-3;points=[];labelBackgroundColor=none;rounded=0;html=1;whiteSpace=wrap;" parent="Nkz60xgJKw_xwo8QLRS3-92" vertex="1">
          <mxGeometry width="36.25" height="30" as="geometry" />
        </mxCell>
        <mxCell id="Nkz60xgJKw_xwo8QLRS3-95" style="vsdxID=7;fillColor=#2d5967;gradientColor=none;shape=stencil(pZbbboMwDIafJrcWceKEXHfde1QqHWgMKspObz8YQisHOXNzF+D70G+ThChzuJWna6Ewu/Vd+1p8Vue+VOZJIVZNWXRVP4yUOSpzuLRd8dK17815ur6eRnIcvbUf4xu+Ji8bDcy+p6ucQOvfO88TXFfNHWwskIg34HEhBA02MMLwWMKjAbcSCLyVCDrLBHlY2gXw/v+490CYgkdq3caJdNM5wFwkkGw+zPU9iDPNeRCMBIjAy5Vkh16J2m0RUNQ+8uBlQg5kRJHENcSFZZe2JQAxFYRtj4S80/Ok3l9VAaxLFGju8r6gwetEgY/kcLVLiXk+EFlwlCjwiSyBSRX4SMaD6KtteT7QMC8xJAp8IsyARJ9tR+Aj5RBE827D82tTuPSjeGRjGX9/zM61s1NIBe9Ae0EBUj4SKM4Pg79z36Wq6+nYeP98fU4cbk1nTHP8AQ==);strokeColor=none;spacingTop=-3;spacingBottom=-3;spacingLeft=-3;spacingRight=-3;points=[];labelBackgroundColor=none;rounded=0;html=1;whiteSpace=wrap;" parent="Nkz60xgJKw_xwo8QLRS3-92" vertex="1">
          <mxGeometry x="8.333333333333334" y="12.5" width="18.333333333333336" height="16.666666666666668" as="geometry" />
        </mxCell>
        <mxCell id="Nkz60xgJKw_xwo8QLRS3-96" style="vsdxID=8;fillColor=#2d5967;gradientColor=none;shape=stencil(pZfRdtsgDIafJrc6gASC6659j541XXKWJT1pumVvPzwbGUTs9Gx3LgV/Rr/0S9ngw/vu+W27ceb9cj593/7av1x2G/yycW5/3G3P+0t+2uDjBh9eT+ftt/Pp4/gy/v32POwcnn6cfg5vuI7nYoA4HHLm97iAEfDvwtO4/evHedxvpwMETNOJaQk9oBuXrm7a5cDxtGtaQoRQduG4xAk4TbumJXSAtMZnBkbFt0Cp5bOHGFu+i+Ct4hNE3/IdQYirfFs+UPgJMLT4QGBdizct2lcfiPWOBSwlSC3VtEjqkR6sujAZcLalWgKzGvCcEBxatGUwSnAMoPS2+ZzSG3NwSeHvpFvW1vuOHrmlZ21DuIvPAUkq5s6CW5XbGYiu5Q+vUXrnTyqhlnT3UieFbwMYxadcfnaNbz0EbvnegtF8Aoct3+fcToqfa4tbvhclF/hecrvgg1SI4KsYlfpLYH1L71MviW9M8MP+WFmTaXzJGrO8NYud+H+2J7GQmwcIPK3v7+PmlWxRFWwCoyqG5xBdsRcWdfyXUobFjkUzSfM5ZbJrKYf0lY+X+jAtnMREP18vpC7uEFgXiwNmRWYI6ua5ytOqVeWYBuWS+TUlgGJVVupXekOQYFReVTxO+PeKFRk8dvygipX6crll1QhG9cYs2ZRUS00igHbqKrBFZQtWeUXfGW+0p3vKBwekU35+b2mMEci38OyKVmlf99hZe7Pel/NNY4vPEpK6PFd2WtKht6rBvbRRG6D1uSiXmJoLqK+6WKla0sFJVyr8esYqfMmQBX5yEkZpFFULKKbjwaj4c98oUtV056Wp6dw0SM5Sl9T71wM6u9sDqXLCzx6IyrS5JN+ScxrTRpD7QSd1g443MtWIgPNUXexEzTntt96dwvPDPMG/7g+H8QdA/X898eel8dcCPv4B);strokeColor=none;spacingTop=-3;spacingBottom=-3;spacingLeft=-3;spacingRight=-3;points=[];labelBackgroundColor=none;rounded=0;html=1;whiteSpace=wrap;" parent="Nkz60xgJKw_xwo8QLRS3-92" vertex="1">
          <mxGeometry x="0.4166666666666667" y="0.4166666666666667" width="34.583333333333336" height="16.666666666666668" as="geometry" />
        </mxCell>
        <mxCell id="Nkz60xgJKw_xwo8QLRS3-97" style="vsdxID=9;fillColor=#2d5967;gradientColor=none;shape=stencil(UzV2Ls5ILEhVNTIoLinKz04tz0wpyVA1dlE1MsrMy0gtyiwBslSNXVWNndPyi1LTi/JL81Ig/IJEkEoQKze/DGRCBUSfAUiHkUElMs8NojAnMw+nQnMLPSMzYhUbGuAxFyZJlmICzkBXTrT3yFMIZCCCOS0zJwcSS8jy6NECFIJEqbErAA==);strokeColor=none;spacingTop=-3;spacingBottom=-3;spacingLeft=-3;spacingRight=-3;points=[];labelBackgroundColor=none;rounded=0;html=1;whiteSpace=wrap;" parent="Nkz60xgJKw_xwo8QLRS3-92" vertex="1">
          <mxGeometry x="11.666666666666668" y="20" width="1.25" height="2.916666666666667" as="geometry" />
        </mxCell>
        <mxCell id="Nkz60xgJKw_xwo8QLRS3-98" style="vsdxID=10;fillColor=#2d5967;gradientColor=none;shape=stencil(UzV2Ls5ILEhVNTIoLinKz04tz0wpyVA1dlE1MsrMy0gtyiwBslSNXVWNndPyi1LTi/JL81Ig/IJEkEoQKze/DGRCBUSfAUiHkUElMs8NojAnMw+nQgsTPQtTYhUbGuAxFyZJlmICzkBXTrT3yFMIZCCCOS0zJwcSS8jy6NECFIJEqbErAA==);strokeColor=none;spacingTop=-3;spacingBottom=-3;spacingLeft=-3;spacingRight=-3;points=[];labelBackgroundColor=none;rounded=0;html=1;whiteSpace=wrap;" parent="Nkz60xgJKw_xwo8QLRS3-92" vertex="1">
          <mxGeometry x="15" y="18.75" width="1.25" height="4.583333333333334" as="geometry" />
        </mxCell>
        <mxCell id="Nkz60xgJKw_xwo8QLRS3-99" style="vsdxID=11;fillColor=#2d5967;gradientColor=none;shape=stencil(UzV2Ls5ILEhVNTIoLinKz04tz0wpyVA1dlE1MsrMy0gtyiwBslSNXVWNndPyi1LTi/JL81Ig/IJEkEoQKze/DGRCBUSfAUiHkUElMs8NojAnMw+nQgtLPWMzYhUbGuAxFyZJlmICzkBXTrT3yFMIZCCCOS0zJwcSS8jy6NECFIJEqbErAA==);strokeColor=none;spacingTop=-3;spacingBottom=-3;spacingLeft=-3;spacingRight=-3;points=[];labelBackgroundColor=none;rounded=0;html=1;whiteSpace=wrap;" parent="Nkz60xgJKw_xwo8QLRS3-92" vertex="1">
          <mxGeometry x="18.333333333333336" y="16.666666666666668" width="1.25" height="6.666666666666667" as="geometry" />
        </mxCell>
        <mxCell id="Nkz60xgJKw_xwo8QLRS3-100" style="vsdxID=12;fillColor=#2d5967;gradientColor=none;shape=stencil(UzV2Ls5ILEhVNTIoLinKz04tz0wpyVA1dlE1MsrMy0gtyiwBslSNXVWNndPyi1LTi/JL81Ig/IJEkEoQKze/DGRCBUSfAUiHkUElMs8NojAnMw+nQktDPTNi1Roa4DEWJkmWYvyuQFdNtOfIUwhkIAI5LTMnBxJHyPLokQIUgkSosSsA);strokeColor=none;spacingTop=-3;spacingBottom=-3;spacingLeft=-3;spacingRight=-3;points=[];labelBackgroundColor=none;rounded=0;html=1;whiteSpace=wrap;" parent="Nkz60xgJKw_xwo8QLRS3-92" vertex="1">
          <mxGeometry x="21.666666666666668" y="15" width="1.25" height="8.333333333333334" as="geometry" />
        </mxCell>
        <mxCell id="Nkz60xgJKw_xwo8QLRS3-102" value="Dashboard" style="rounded=1;whiteSpace=wrap;html=1;fontSize=10;" parent="1" vertex="1">
          <mxGeometry x="1010" y="128" width="80" height="40" as="geometry" />
        </mxCell>
        <mxCell id="Nkz60xgJKw_xwo8QLRS3-108" style="edgeStyle=orthogonalEdgeStyle;rounded=0;orthogonalLoop=1;jettySize=auto;html=1;exitX=1;exitY=0.5;exitDx=0;exitDy=0;entryX=0;entryY=0.5;entryDx=0;entryDy=0;" parent="1" source="Nkz60xgJKw_xwo8QLRS3-85" target="Nkz60xgJKw_xwo8QLRS3-91" edge="1">
          <mxGeometry relative="1" as="geometry" />
        </mxCell>
        <mxCell id="Nkz60xgJKw_xwo8QLRS3-109" value="Table" style="shape=internalStorage;whiteSpace=wrap;html=1;backgroundOutline=1;dx=10;dy=10;fontSize=10;" parent="1" vertex="1">
          <mxGeometry x="810" y="126.5" width="60" height="43" as="geometry" />
        </mxCell>
        <mxCell id="Nkz60xgJKw_xwo8QLRS3-110" value="View" style="shape=internalStorage;whiteSpace=wrap;html=1;backgroundOutline=1;dx=10;dy=10;fontSize=10;dashed=1;" parent="1" vertex="1">
          <mxGeometry x="880" y="126.5" width="60" height="43" as="geometry" />
        </mxCell>
        <mxCell id="Nkz60xgJKw_xwo8QLRS3-140" style="edgeStyle=orthogonalEdgeStyle;rounded=0;orthogonalLoop=1;jettySize=auto;html=1;exitX=1;exitY=0.5;exitDx=0;exitDy=0;entryX=0;entryY=0.5;entryDx=0;entryDy=0;endArrow=none;endFill=0;dashed=1;" parent="1" source="Nkz60xgJKw_xwo8QLRS3-111" target="Nkz60xgJKw_xwo8QLRS3-124" edge="1">
          <mxGeometry relative="1" as="geometry" />
        </mxCell>
        <mxCell id="Nkz60xgJKw_xwo8QLRS3-111" value="Events" style="rounded=1;whiteSpace=wrap;html=1;fillColor=none;strokeColor=#6c8ebf;align=center;verticalAlign=top;fontStyle=1;spacingLeft=4;fontSize=10;spacingRight=4;spacing=2;spacingTop=0;strokeWidth=2;arcSize=9;" parent="1" vertex="1">
          <mxGeometry x="489.5" y="330" width="120" height="100" as="geometry" />
        </mxCell>
        <mxCell id="Nkz60xgJKw_xwo8QLRS3-118" style="vsdxID=139;fillColor=none;gradientColor=none;strokeColor=none;spacingTop=-3;spacingBottom=-3;spacingLeft=-3;spacingRight=-3;points=[];labelBackgroundColor=none;rounded=0;html=1;whiteSpace=wrap;aspect=fixed;" parent="1" vertex="1">
          <mxGeometry x="499.14" y="394" width="30.36" height="30" as="geometry" />
        </mxCell>
        <mxCell id="Nkz60xgJKw_xwo8QLRS3-119" style="vsdxID=140;fillColor=none;gradientColor=none;strokeColor=none;spacingTop=-3;spacingBottom=-3;spacingLeft=-3;spacingRight=-3;points=[];labelBackgroundColor=none;rounded=0;html=1;whiteSpace=wrap;" parent="Nkz60xgJKw_xwo8QLRS3-118" vertex="1">
          <mxGeometry width="30.36" height="30" as="geometry" />
        </mxCell>
        <mxCell id="Nkz60xgJKw_xwo8QLRS3-120" style="vsdxID=141;fillColor=#FFFFFF;gradientColor=none;shape=stencil(pVbLcoMwDPwarhpb8vOctv+RaUjDNE0yJGnTv6+pbYJNccpwM2IXL9JKdkWr8259qitk50t7fK+/ms1lV9FThdgcdnXbXNyqoueKVttjW7+1x+th459P6w7ZrT6On90Xbp6nNGjqWMi+fYQz9vv84uH75lCEWwRupwlCA7PLCDrR83ptvX7u35IBUgEfQsqANj50w4DiQDygQkhx0CF0o4BiwCMqhCSCpWm1KBOpj9AWuEgIioEoJIPNAXMBUicEIijgkYPiCV4okAXCMD0ThFF1BnmPIQ15cQYlxH6r6LNYnKExqM+n5HOsxAm4LvwgAaplBGRgTaFGCGSXEQrdOZYzC6yBcBrfeRsX4anYyK4fVeymu3sQU690vZ1ZxQDa1CrKgs36uPNCoZBaAKa984hgQWV/Z4DJaYJ16eZzCHEO97OlUMvxx+/T7Z/yHxEE6NQtstwa2g2rMn5kADcdTTbJOViZGcAdH9Em2BNZtAn1m8XdqdeDouBWyuQaBVTAu4PQqmUE3cv+k2AMGLmMMPMoXwZ3i/slY9vs9/6OMnyfX0pcyF9o6PkH);strokeColor=none;spacingTop=-3;spacingBottom=-3;spacingLeft=-3;spacingRight=-3;points=[];labelBackgroundColor=none;rounded=0;html=1;whiteSpace=wrap;" parent="Nkz60xgJKw_xwo8QLRS3-119" vertex="1">
          <mxGeometry x="0.36142857142857143" width="29.275714285714287" height="29.277108433734938" as="geometry" />
        </mxCell>
        <mxCell id="Nkz60xgJKw_xwo8QLRS3-121" style="vsdxID=142;fillColor=#FFFFFF;gradientColor=none;shape=stencil(pVnbUtwwDP2afdXYli/xM4X/YMpSdkpZZoGW/n2VJnZiK5E35C1oz/FNR7IsDnjz9nT/ejwY9fZ+Of88/jk9vD8d8NvBmNPL0/FyeqevA94e8ObxfDn+uJw/Xh6Gv1/ve2T/9ev8ux/hc+AhgsKeZdTfwWIAu/+GuwH/fHoR8RGcWcc7DTHuwqMGi3PC94/LsAM9ALyCLlFGE+ZNqE8zogL4hBpNGMGMpk8cUR14PaJGk+0AcX3BwYINxYJbhAi+PEGUjyRqQLuJEECXZ+jUluHpQK0gAb6BFsFCLGdwBrRdJ5AXOicTmAgCxOS4ZNL5GLIIyJSWbvJcutQAzWUSKMkignKCaGeMwdJ5iOL+ssq+hicfBL9OoOHsTgKJyAsa40vaThBESTEU9qBpNhckvVAIdbVeAnS+1AvlkVAlDdJ6qARDKJVQSUMafFhfsLGTDq8jZJUmvKxIrLNoA689aF/mGFGRdEuYMkJtWuHyemZHtIxnDppdNJPPxj1MDpq5cfLZmCqyg+b6SD7LyeFKRWmT1HHlvbiZYOQsql2dZLYTNl7te/FVqeEAS40JIc0HF8B8pxKY/NJ9HSyfyQK+4SROkHWz4NXNQmsQmJ+2E+RNc0K/K6EgsB4w7COYXOytJRxKSImSTApinXD0dI0lU5iKTcyTxeTVlINcGms5oWKqcnOClAm6A1VVhQ0C/VzVnXIVpm1Ot1fOUEvZiXeCKrBevgDZhdbAm1AvpjWBrmvO1gwzH1+zXb4iZytJNieoCUzDM3WmqsaksmzScJjq8VTV8KfQPIRGU1Ci/3nQRbUxSqMRi8iFslAmeA+m20lo1LWMoJVwofAyWITzulyGd6nK/yK8sVlOCPJTdIEQxKSz8HKRCQtvowaBOWw7Qd40J3RypFNcO7+PEPKzZO2BbCZPJBOvp8mE9QPZsOutzwNpLMwrkt4XAcFVLYAGIYCrnnRyxR46MKYkyKXaQhtDJiw0ShoEOvJtBCoC7JZNR3JXeaq1DKobWpWXrm00kurhG60tvn4MYuXIT4iendKlu9ALkwkL3bYGgemoRWBKRbEOoFBQZexSpSc5rQ9tIxNYsMfpua2zJ1hL1ICrgh15d4MCNR/5VN6K7TBbO6nR82V4OSHzHrGM58+NrfjGQ3jTw1YG08fUqn88PT8Pnf7573Vrn0zDvwXw9h8=);strokeColor=none;spacingTop=-3;spacingBottom=-3;spacingLeft=-3;spacingRight=-3;points=[];labelBackgroundColor=none;rounded=0;html=1;whiteSpace=wrap;" parent="Nkz60xgJKw_xwo8QLRS3-119" vertex="1">
          <mxGeometry width="30.36" height="30" as="geometry" />
        </mxCell>
        <mxCell id="Nkz60xgJKw_xwo8QLRS3-122" style="vsdxID=143;fillColor=#2d5967;gradientColor=none;shape=stencil(pVfbdtsgEPwave5hWW56TpP/yGmcWqeunaM4bfr3RZWQWLCRiN5kPAuz7OwADT28H5/fDo0U79f+8vPwp3u5Hhv61kjZnY+Hvrv6r4YeG3p4vfSHH/3l4/wy/n57HpDD16/L72GGzzHOtKDbIUqKv+OIRrD6/8jTGHDqzlGANYBUE+AQ0LAAI6CAbwmsrMCjEAyt2pXZW8fw5NboK6wJsBoc31Hl7qPz/efo7x/9WC6c8G7B48xnpCM+5QRCoMB5GiIEGVC01C0UZhoiEVA3ycYRU7KlvaZs6yrholB1uaT4BTC2NTwq0XgfrRxItQOdFSjVhxeDSfURlX5Rw9yTMlX1LBC/2JwarUsZV6ScoAkE1xKZovh4l+til0sNhmrwvmF0janJFlZcMyuMgKQu5kZdHGBwp9DLS3eHGliwITlaXKQgoyhgckFZdCT8Oji48W0v9XregXaFVsmI1IFdaf98bfUeuF+urI3Yrxeft6mrO3DBDWQuoUgKQWi0ScsbrgD8zoAGBD9DURdbNw+gcndZMGoXvprQ/oDkXgU6MSBT44VK1fhsae4qIitgnqJT0CYNqspXqSygLVu+JSCzL6Ca0v4AvktEaYBmnpedExF+GlL5QTEMcSsgxX1Ah/OS2P93VtXeW/ii83zBaqIOkDkvylG0Jd04YOGSWl9Eb6ZTTteY0qrR9mEyn8zLIHNelKNuppvcFVe0wJVj/SnFXU2lB0miTQLFp1ey+BbyNo81eJ3eI1YI+QUUb0dti/TRbkZX786GAP+xvJNfu9NpfGbH/6fvaj80vsnp8R8=);strokeColor=none;spacingTop=-3;spacingBottom=-3;spacingLeft=-3;spacingRight=-3;points=[];labelBackgroundColor=none;rounded=0;html=1;whiteSpace=wrap;" parent="Nkz60xgJKw_xwo8QLRS3-118" vertex="1">
          <mxGeometry x="1.0842857142857143" y="0.3614457831325301" width="28.19142857142857" height="28.55421686746988" as="geometry" />
        </mxCell>
        <mxCell id="Nkz60xgJKw_xwo8QLRS3-124" value="Functions" style="rounded=1;whiteSpace=wrap;html=1;fillColor=none;strokeColor=#6c8ebf;align=center;verticalAlign=top;fontStyle=1;spacingLeft=4;fontSize=10;spacingRight=4;spacing=2;spacingTop=0;strokeWidth=2;arcSize=9;" parent="1" vertex="1">
          <mxGeometry x="639.5" y="330" width="120" height="100" as="geometry" />
        </mxCell>
        <mxCell id="Nkz60xgJKw_xwo8QLRS3-126" style="vsdxID=37;fillColor=none;gradientColor=none;strokeColor=none;spacingTop=-3;spacingBottom=-3;spacingLeft=-3;spacingRight=-3;points=[];labelBackgroundColor=none;rounded=0;html=1;whiteSpace=wrap;aspect=fixed;" parent="1" vertex="1">
          <mxGeometry x="648.9685714285714" y="394" width="30" height="30" as="geometry" />
        </mxCell>
        <mxCell id="Nkz60xgJKw_xwo8QLRS3-127" style="vsdxID=38;fillColor=none;gradientColor=none;strokeColor=none;spacingTop=-3;spacingBottom=-3;spacingLeft=-3;spacingRight=-3;points=[];labelBackgroundColor=none;rounded=0;html=1;whiteSpace=wrap;" parent="Nkz60xgJKw_xwo8QLRS3-126" vertex="1">
          <mxGeometry width="30" height="30" as="geometry" />
        </mxCell>
        <mxCell id="Nkz60xgJKw_xwo8QLRS3-128" style="vsdxID=39;fillColor=#FFFFFF;gradientColor=none;shape=stencil(lZPRDoIwDEW/Zq9LWUHCs+J/EAVZRCATFP/eYYdsAzW+td2922mzMtxey6zNmYBrp5pzfpfHrmS4Y0LIusyV7HTEMGW4LRqVn1TT10fK22xUjtGluY03DOSLOEajScCDCknC482rsif9oVdkCEggeIjGEfgWGASVwChMmsQchVGgqzBpEvLQfrWStUUJDuKb+QMhuHgz8ERnteDyTnDWVBzcVTiNvnFnCN/o9Cyi2CUEFy8Ab3xWB+hLfOJVxFnuI3+AnA1L6kEsG/HJB1zOxkNfBf39Hf/V62D++4WsKlod+9zfFV2iPcP0CQ==);strokeColor=none;spacingTop=-3;spacingBottom=-3;spacingLeft=-3;spacingRight=-3;points=[];labelBackgroundColor=none;rounded=0;html=1;whiteSpace=wrap;" parent="Nkz60xgJKw_xwo8QLRS3-127" vertex="1">
          <mxGeometry x="0.35714285714285715" y="0.35714285714285715" width="29.285714285714285" height="29.285714285714285" as="geometry" />
        </mxCell>
        <mxCell id="Nkz60xgJKw_xwo8QLRS3-129" style="vsdxID=40;fillColor=#FFFFFF;gradientColor=none;shape=stencil(lZXRdoIwDIafprc9aUMpvXb6Hp6JgzMmHsSNvf1gLbQNCHpX4h/88iehDHe34njNmYRb29Sf+U95aguGb0zK8lLkTdn2J4Z7hrtz3eQfTX2/nOzz9Tgoh9NX/T28obN5BjmqIUvCr41Ijtl/4GD17/fGJgiXoXhiXIYgKdBJJ9IcR5ELJVy6SIdzkQulPMHwz6vyEsIGCRN+JlZpgxRfgFEEN6jJV5ClhDfwCqlqEbgvR8S8VE95e5c0wdU8lTFu77cmtIprEdMGIs+v9GPYIGG5GZQ1SBCzHstZPXI2LDhzCZdnkIzB5sy+qt/aCXihxbBuWaZiyyD2C6hZdAghdmp9YSAi21wWYHTyREInb+J3EQHANro5Sh41R8U7TeQLGy2Ih56BQgXbPJWCVPPcenj9c9thDNcp/U5O3Ry5Um5EjErsXPjorLu5Nrr9wV8E57Kq7D0S/k4vjj5kLx3c/wE=);strokeColor=none;spacingTop=-3;spacingBottom=-3;spacingLeft=-3;spacingRight=-3;points=[];labelBackgroundColor=none;rounded=0;html=1;whiteSpace=wrap;" parent="Nkz60xgJKw_xwo8QLRS3-127" vertex="1">
          <mxGeometry width="30" height="30" as="geometry" />
        </mxCell>
        <mxCell id="Nkz60xgJKw_xwo8QLRS3-131" style="vsdxID=42;fillColor=#2d5967;gradientColor=none;shape=stencil(lZXLcoMwDEW/xlvGWDzidZr8R6YhhSmFDCEt+ftCbbAkB+Lu/LgyR/IVFrC/ladrIZS89V37WfxU574U8CaUqpqy6Kp+HAk4CNhf2q746Np7czbz62lSTqOv9ns6YTBxOo3SeIpS8mFW5N/saMR11SBxEqlkXft+78zJsdmMI62tOsZyOSgyfdipsrtAd2H5drpOJgmWzra4JIXSO0qFsOcVKSkaqgNQyVO4scZ5RgCZnBPqXSRjSukYONRMueQBXAAOY6OETv+84B6kno9bIBVF1LnLm175AL774KX9XniVGTtzNVzJ38so88puneRSSr2UxihbqK20nCqsszw9hwWvuzCImkV5wmkpKlKE2QQFhPkEBdiVhEPyhoPFWesdB5uUfstxfcDlIwx01+z6EwqKFUF/rgCf/jtgHLj//aWqa/Nc4H3+PoxL5m2Bwy8=);strokeColor=none;spacingTop=-3;spacingBottom=-3;spacingLeft=-3;spacingRight=-3;points=[];labelBackgroundColor=none;rounded=0;html=1;whiteSpace=wrap;" parent="Nkz60xgJKw_xwo8QLRS3-126" vertex="1">
          <mxGeometry x="0.7142857142857143" y="0.7142857142857143" width="28.571428571428573" height="28.571428571428573" as="geometry" />
        </mxCell>
        <mxCell id="Nkz60xgJKw_xwo8QLRS3-132" style="vsdxID=43;fillColor=#2d5967;gradientColor=none;shape=stencil(pZLRDsIgDEW/hlcCNG68z/kfS8aEiLCwOfXvhTTGTSPqfOul57YNuQSqQTe9IoINY/AHdTbtqAlsiRDGaRXMGCsCNYGq80Htgz+5FnXfJDJVRz+lCRf0seQQ7IqKM9Q7RK1xM/TeXAVn0JVgdn0WXf4AByrKJV5QuXk/Wxa0hP8MEijPGF5P+tnw4aQvDLF4hKYz1mLm5v3nkMUnDCjUNw==);strokeColor=none;spacingTop=-3;spacingBottom=-3;spacingLeft=-3;spacingRight=-3;points=[];labelBackgroundColor=none;rounded=0;html=1;whiteSpace=wrap;" parent="Nkz60xgJKw_xwo8QLRS3-126" vertex="1">
          <mxGeometry x="3.5714285714285716" y="19.642857142857142" width="7.857142857142858" height="6.071428571428571" as="geometry" />
        </mxCell>
        <mxCell id="Nkz60xgJKw_xwo8QLRS3-133" style="vsdxID=44;fillColor=#2d5967;gradientColor=none;shape=stencil(pZLdDsIgDIWfhlsC1Bm8nvM9lowJEWFhmz9vL6QxbhpZnHc99DttQw6Bstd1p4hg/RD8SV1NM2gCeyKEcVoFM8SKQEWgbH1Qx+BH16Du6kSm6uwvacINfSw5BLuj4gz1AVFr3AR9NlfBGXQlmF2fRec/sKFSzOktlcX30buCcvmfQQLlGcPHRb/yCwct87F4BaY11mLepv33gMUnDCdUDw==);strokeColor=none;spacingTop=-3;spacingBottom=-3;spacingLeft=-3;spacingRight=-3;points=[];labelBackgroundColor=none;rounded=0;html=1;whiteSpace=wrap;" parent="Nkz60xgJKw_xwo8QLRS3-126" vertex="1">
          <mxGeometry x="3.5714285714285716" y="3.5714285714285716" width="22.142857142857142" height="6.071428571428571" as="geometry" />
        </mxCell>
        <mxCell id="Nkz60xgJKw_xwo8QLRS3-134" style="vsdxID=45;fillColor=#2d5967;gradientColor=none;shape=stencil(pZLLDoMgEEW/hi0BplRdW/sfJmIhpWKQvv6+kklT7cPWupsL5w7D5BLIO122igjWBe/26myqoAlsiBCm0cqb0FcECgJ57bzaeXdsKtRtGclYHdwpdrigjzMWPYJdUaPaImpNM0D/BO8vvEWzjEqxBJ+AZ3xtEh0vLBM0XY/gFCiXn3snlK8W8VzSBCZ28jLQbMOXiX4w9MUjYbWxFgM6vH9OZH+EaYbiBg==);strokeColor=none;spacingTop=-3;spacingBottom=-3;spacingLeft=-3;spacingRight=-3;points=[];labelBackgroundColor=none;rounded=0;html=1;whiteSpace=wrap;" parent="Nkz60xgJKw_xwo8QLRS3-126" vertex="1">
          <mxGeometry x="3.5714285714285716" y="11.785714285714286" width="15" height="6.071428571428571" as="geometry" />
        </mxCell>
        <mxCell id="Nkz60xgJKw_xwo8QLRS3-135" style="vsdxID=46;fillColor=#2d5967;gradientColor=none;shape=stencil(nZBLCoAwDERPk31tjuDnHoLVBmsrtf5ub0sQRdzobiZ5ycAA5pOuRwVSTMG7Xq3UBA1YgJRktfIUogIsAfPWedV5N9uG/VgnMqnBLenDxneZEOlGip09u4pRQ/aG/gTPhFf0Gf8J/otGcdXRkjHc5n3/rC+OuHosDw==);strokeColor=none;spacingTop=-3;spacingBottom=-3;spacingLeft=-3;spacingRight=-3;points=[];labelBackgroundColor=none;rounded=0;html=1;whiteSpace=wrap;" parent="Nkz60xgJKw_xwo8QLRS3-126" vertex="1">
          <mxGeometry x="20" y="12.142857142857142" width="5.357142857142858" height="5" as="geometry" />
        </mxCell>
        <mxCell id="Nkz60xgJKw_xwo8QLRS3-136" style="vsdxID=47;fillColor=#2d5967;gradientColor=none;shape=stencil(nZBLCoAwDERPk31tjuDnHoLVBmsrtf5ub0sQRdzobiZ5ycAA5pOuRwVSTMG7Xq3UBA1YgJRktfIUogIsAfPWedV5N9uG/VgnMqnBLenDxneZEOlGip09u4pRQ/aG/gTPhFf0Gf8J/otGcdXRkjHc5n3/rC+OuHosDw==);strokeColor=none;spacingTop=-3;spacingBottom=-3;spacingLeft=-3;spacingRight=-3;points=[];labelBackgroundColor=none;rounded=0;html=1;whiteSpace=wrap;" parent="Nkz60xgJKw_xwo8QLRS3-126" vertex="1">
          <mxGeometry x="20" y="20" width="5.357142857142858" height="5" as="geometry" />
        </mxCell>
        <mxCell id="Nkz60xgJKw_xwo8QLRS3-137" style="vsdxID=48;fillColor=#2d5967;gradientColor=none;shape=stencil(nZBLCoAwDERPk31tjuDnHoLVBmsrtf5ub0sQRdzobiZ5ycAA5pOuRwVSTMG7Xq3UBA1YgJRktfIUogIsAfPWedV5N9uG/VgnMqnBLenDxneZEOlGip09u4pRQ/aG/gTPhFf0Gf8J/otGcdXRkjHc5n3/rC+OuHosDw==);strokeColor=none;spacingTop=-3;spacingBottom=-3;spacingLeft=-3;spacingRight=-3;points=[];labelBackgroundColor=none;rounded=0;html=1;whiteSpace=wrap;" parent="Nkz60xgJKw_xwo8QLRS3-126" vertex="1">
          <mxGeometry x="13.214285714285715" y="20" width="5.357142857142858" height="5" as="geometry" />
        </mxCell>
        <mxCell id="Nkz60xgJKw_xwo8QLRS3-141" style="edgeStyle=orthogonalEdgeStyle;rounded=0;orthogonalLoop=1;jettySize=auto;html=1;exitX=0.5;exitY=0;exitDx=0;exitDy=0;entryX=0.5;entryY=1;entryDx=0;entryDy=0;endArrow=none;endFill=0;dashed=1;" parent="1" source="Nkz60xgJKw_xwo8QLRS3-172" target="Nkz60xgJKw_xwo8QLRS3-72" edge="1">
          <mxGeometry relative="1" as="geometry" />
        </mxCell>
        <mxCell id="Nkz60xgJKw_xwo8QLRS3-142" value="&lt;font color=&quot;#000000&quot;&gt;workspace&lt;/font&gt;&lt;br style=&quot;font-size: 10px;&quot;&gt;sandbox-workspace" style="text;html=1;strokeColor=none;fillColor=none;align=center;verticalAlign=middle;whiteSpace=wrap;rounded=0;fontSize=10;fontColor=#6C8EBF;" parent="1" vertex="1">
          <mxGeometry x="40" y="180" width="120" height="30" as="geometry" />
        </mxCell>
        <mxCell id="Nkz60xgJKw_xwo8QLRS3-144" value="&lt;font color=&quot;#000000&quot;&gt;log&lt;/font&gt;&lt;br style=&quot;font-size: 10px;&quot;&gt;sandbox-workspace-log" style="text;html=1;strokeColor=none;fillColor=none;align=center;verticalAlign=middle;whiteSpace=wrap;rounded=0;fontSize=10;fontColor=#6C8EBF;" parent="1" vertex="1">
          <mxGeometry x="190" y="180" width="120" height="30" as="geometry" />
        </mxCell>
        <mxCell id="Nkz60xgJKw_xwo8QLRS3-145" value="&lt;font color=&quot;#000000&quot;&gt;connector&lt;/font&gt;&lt;br style=&quot;font-size: 10px;&quot;&gt;sandbox-workspace-&lt;br&gt;logs-to-bucket" style="text;html=1;strokeColor=none;fillColor=none;align=center;verticalAlign=middle;whiteSpace=wrap;rounded=0;fontSize=10;fontColor=#6C8EBF;" parent="1" vertex="1">
          <mxGeometry x="340" y="180" width="120" height="30" as="geometry" />
        </mxCell>
        <mxCell id="Nkz60xgJKw_xwo8QLRS3-146" value="&lt;font color=&quot;#000000&quot;&gt;bucket&lt;/font&gt;&lt;br style=&quot;font-size: 10px;&quot;&gt;sandbox-workspace-logs" style="text;html=1;strokeColor=none;fillColor=none;align=center;verticalAlign=middle;whiteSpace=wrap;rounded=0;fontSize=10;fontColor=#6C8EBF;" parent="1" vertex="1">
          <mxGeometry x="490" y="180" width="120" height="30" as="geometry" />
        </mxCell>
        <mxCell id="Nkz60xgJKw_xwo8QLRS3-147" value="&lt;font color=&quot;#000000&quot;&gt;pipeline&lt;/font&gt;&lt;br style=&quot;font-size: 10px;&quot;&gt;task-pipeline-load-data-integration-logs" style="text;html=1;strokeColor=none;fillColor=none;align=center;verticalAlign=middle;whiteSpace=wrap;rounded=0;fontSize=10;fontColor=#6C8EBF;" parent="1" vertex="1">
          <mxGeometry x="640" y="180" width="120" height="30" as="geometry" />
        </mxCell>
        <mxCell id="Nkz60xgJKw_xwo8QLRS3-148" value="&lt;font color=&quot;#000000&quot;&gt;table&lt;/font&gt;&lt;br style=&quot;font-size: 10px;&quot;&gt;data_integration_&lt;br&gt;logs" style="text;html=1;strokeColor=none;fillColor=none;align=center;verticalAlign=middle;whiteSpace=wrap;rounded=0;fontSize=10;fontColor=#6C8EBF;" parent="1" vertex="1">
          <mxGeometry x="790" y="180" width="80" height="30" as="geometry" />
        </mxCell>
        <mxCell id="Nkz60xgJKw_xwo8QLRS3-149" value="&lt;font color=&quot;#000000&quot;&gt;workbook&lt;/font&gt;&lt;br style=&quot;font-size: 10px;&quot;&gt;Analyze Data Integration Runs" style="text;html=1;strokeColor=none;fillColor=none;align=center;verticalAlign=middle;whiteSpace=wrap;rounded=0;fontSize=10;fontColor=#6C8EBF;" parent="1" vertex="1">
          <mxGeometry x="990" y="180" width="120" height="30" as="geometry" />
        </mxCell>
        <mxCell id="Nkz60xgJKw_xwo8QLRS3-150" value="&lt;font color=&quot;#000000&quot;&gt;view&lt;/font&gt;&lt;br style=&quot;font-size: 10px;&quot;&gt;data_integration_&lt;br&gt;summary" style="text;html=1;strokeColor=none;fillColor=none;align=center;verticalAlign=middle;whiteSpace=wrap;rounded=0;fontSize=10;fontColor=#6C8EBF;" parent="1" vertex="1">
          <mxGeometry x="880" y="180" width="80" height="30" as="geometry" />
        </mxCell>
        <mxCell id="Nkz60xgJKw_xwo8QLRS3-151" value="&lt;font color=&quot;#000000&quot;&gt;event&lt;/font&gt;&lt;br style=&quot;font-size: 10px;&quot;&gt;load-data-integration- logs-event" style="text;html=1;strokeColor=none;fillColor=none;align=center;verticalAlign=middle;whiteSpace=wrap;rounded=0;fontSize=10;fontColor=#6C8EBF;" parent="1" vertex="1">
          <mxGeometry x="489.5" y="359" width="120" height="30" as="geometry" />
        </mxCell>
        <mxCell id="Nkz60xgJKw_xwo8QLRS3-152" value="&lt;font color=&quot;#000000&quot;&gt;function&lt;/font&gt;&lt;br style=&quot;font-size: 10px;&quot;&gt;fn-load-data-&lt;br&gt;integration-logs" style="text;html=1;strokeColor=none;fillColor=none;align=center;verticalAlign=middle;whiteSpace=wrap;rounded=0;fontSize=10;fontColor=#6C8EBF;" parent="1" vertex="1">
          <mxGeometry x="639.5" y="359" width="120" height="30" as="geometry" />
        </mxCell>
        <mxCell id="Nkz60xgJKw_xwo8QLRS3-153" value="Write logs to Logging service" style="text;html=1;strokeColor=none;fillColor=#dae8fc;align=left;verticalAlign=middle;whiteSpace=wrap;rounded=0;fontSize=10;" parent="1" vertex="1">
          <mxGeometry x="129" y="30" width="90" height="30" as="geometry" />
        </mxCell>
        <mxCell id="Nkz60xgJKw_xwo8QLRS3-154" value="Read logs from Logging service" style="text;html=1;strokeColor=none;fillColor=#dae8fc;align=left;verticalAlign=middle;whiteSpace=wrap;rounded=0;fontSize=10;" parent="1" vertex="1">
          <mxGeometry x="279" y="30" width="90" height="30" as="geometry" />
        </mxCell>
        <mxCell id="Nkz60xgJKw_xwo8QLRS3-155" value="Save logs (JSON format) in Bucket" style="text;html=1;strokeColor=none;fillColor=#dae8fc;align=left;verticalAlign=middle;whiteSpace=wrap;rounded=0;fontSize=10;" parent="1" vertex="1">
          <mxGeometry x="429" y="30" width="90" height="30" as="geometry" />
        </mxCell>
        <mxCell id="Nkz60xgJKw_xwo8QLRS3-156" value="Read logs (JSON format) from Bucket" style="text;html=1;strokeColor=none;fillColor=#dae8fc;align=left;verticalAlign=middle;whiteSpace=wrap;rounded=0;fontSize=10;spacing=0;" parent="1" vertex="1">
          <mxGeometry x="579" y="30" width="90" height="30" as="geometry" />
        </mxCell>
        <mxCell id="Nkz60xgJKw_xwo8QLRS3-157" value="Insert logs to database Table" style="text;html=1;strokeColor=none;fillColor=#dae8fc;align=left;verticalAlign=middle;whiteSpace=wrap;rounded=0;fontSize=10;" parent="1" vertex="1">
          <mxGeometry x="729" y="30" width="90" height="30" as="geometry" />
        </mxCell>
        <mxCell id="Nkz60xgJKw_xwo8QLRS3-158" value="Read summary from database View" style="text;html=1;strokeColor=none;fillColor=#dae8fc;align=left;verticalAlign=middle;whiteSpace=wrap;rounded=0;fontSize=10;spacing=0;" parent="1" vertex="1">
          <mxGeometry x="930" y="30" width="90" height="30" as="geometry" />
        </mxCell>
        <mxCell id="Nkz60xgJKw_xwo8QLRS3-159" value="Emit Event upon creation of object" style="text;html=1;strokeColor=none;fillColor=#dae8fc;align=left;verticalAlign=middle;whiteSpace=wrap;rounded=0;fontSize=10;spacing=2;" parent="1" vertex="1">
          <mxGeometry x="429.5" y="280" width="90" height="30" as="geometry" />
        </mxCell>
        <mxCell id="Nkz60xgJKw_xwo8QLRS3-160" value="Run Data Integration task" style="text;html=1;strokeColor=none;fillColor=#dae8fc;align=left;verticalAlign=middle;whiteSpace=wrap;rounded=0;fontSize=10;spacing=2;" parent="1" vertex="1">
          <mxGeometry x="728.5" y="280" width="90" height="30" as="geometry" />
        </mxCell>
        <mxCell id="Nkz60xgJKw_xwo8QLRS3-161" value="Invoke Function" style="text;html=1;strokeColor=none;fillColor=#dae8fc;align=left;verticalAlign=middle;whiteSpace=wrap;rounded=0;fontSize=10;spacing=2;" parent="1" vertex="1">
          <mxGeometry x="579.5" y="280" width="90" height="30" as="geometry" />
        </mxCell>
        <mxCell id="Nkz60xgJKw_xwo8QLRS3-162" value="&lt;b&gt;&lt;font color=&quot;#ffffff&quot;&gt;1&lt;/font&gt;&lt;/b&gt;" style="rounded=1;whiteSpace=wrap;html=1;fillColor=#AE562C;strokeColor=#FFFFFF;fontColor=#161513;fontFamily=Oracle Sans;labelBackgroundColor=none;align=center;arcSize=50;" parent="1" vertex="1">
          <mxGeometry x="90" y="35" width="20" height="20" as="geometry" />
        </mxCell>
        <mxCell id="Nkz60xgJKw_xwo8QLRS3-163" value="&lt;b&gt;&lt;font color=&quot;#ffffff&quot;&gt;2&lt;/font&gt;&lt;/b&gt;" style="rounded=1;whiteSpace=wrap;html=1;fillColor=#AE562C;strokeColor=#FFFFFF;fontColor=#161513;fontFamily=Oracle Sans;labelBackgroundColor=none;align=center;arcSize=50;" parent="1" vertex="1">
          <mxGeometry x="240" y="35" width="20" height="20" as="geometry" />
        </mxCell>
        <mxCell id="Nkz60xgJKw_xwo8QLRS3-164" value="&lt;b&gt;&lt;font color=&quot;#ffffff&quot;&gt;3&lt;/font&gt;&lt;/b&gt;" style="rounded=1;whiteSpace=wrap;html=1;fillColor=#AE562C;strokeColor=#FFFFFF;fontColor=#161513;fontFamily=Oracle Sans;labelBackgroundColor=none;align=center;arcSize=50;" parent="1" vertex="1">
          <mxGeometry x="390" y="35" width="20" height="20" as="geometry" />
        </mxCell>
        <mxCell id="Nkz60xgJKw_xwo8QLRS3-165" value="&lt;b&gt;&lt;font color=&quot;#ffffff&quot;&gt;4&lt;/font&gt;&lt;/b&gt;" style="rounded=1;whiteSpace=wrap;html=1;fillColor=#AE562C;strokeColor=#FFFFFF;fontColor=#161513;fontFamily=Oracle Sans;labelBackgroundColor=none;align=center;arcSize=50;" parent="1" vertex="1">
          <mxGeometry x="540" y="35" width="20" height="20" as="geometry" />
        </mxCell>
        <mxCell id="Nkz60xgJKw_xwo8QLRS3-166" value="&lt;b&gt;&lt;font color=&quot;#ffffff&quot;&gt;7&lt;/font&gt;&lt;/b&gt;" style="rounded=1;whiteSpace=wrap;html=1;fillColor=#AE562C;strokeColor=#FFFFFF;fontColor=#161513;fontFamily=Oracle Sans;labelBackgroundColor=none;align=center;arcSize=50;" parent="1" vertex="1">
          <mxGeometry x="690" y="35" width="20" height="20" as="geometry" />
        </mxCell>
        <mxCell id="Nkz60xgJKw_xwo8QLRS3-168" value="&lt;b&gt;&lt;font color=&quot;#ffffff&quot;&gt;8&lt;/font&gt;&lt;/b&gt;" style="rounded=1;whiteSpace=wrap;html=1;fillColor=#AE562C;strokeColor=#FFFFFF;fontColor=#161513;fontFamily=Oracle Sans;labelBackgroundColor=none;align=center;arcSize=50;" parent="1" vertex="1">
          <mxGeometry x="870" y="35" width="20" height="20" as="geometry" />
        </mxCell>
        <mxCell id="Nkz60xgJKw_xwo8QLRS3-169" value="&lt;b&gt;&lt;font color=&quot;#ffffff&quot;&gt;9&lt;/font&gt;&lt;/b&gt;" style="rounded=1;whiteSpace=wrap;html=1;fillColor=#AE562C;strokeColor=#FFFFFF;fontColor=#161513;fontFamily=Oracle Sans;labelBackgroundColor=none;align=center;arcSize=50;" parent="1" vertex="1">
          <mxGeometry x="1040" y="35" width="20" height="20" as="geometry" />
        </mxCell>
        <mxCell id="Nkz60xgJKw_xwo8QLRS3-171" value="" style="edgeStyle=orthogonalEdgeStyle;rounded=0;orthogonalLoop=1;jettySize=auto;html=1;exitX=0.5;exitY=1;exitDx=0;exitDy=0;entryX=0.5;entryY=0;entryDx=0;entryDy=0;endArrow=none;endFill=0;dashed=1;" parent="1" source="Nkz60xgJKw_xwo8QLRS3-59" target="Nkz60xgJKw_xwo8QLRS3-170" edge="1">
          <mxGeometry relative="1" as="geometry">
            <mxPoint x="550" y="250" as="sourcePoint" />
            <mxPoint x="550" y="320" as="targetPoint" />
          </mxGeometry>
        </mxCell>
        <mxCell id="Nkz60xgJKw_xwo8QLRS3-170" value="&lt;b&gt;&lt;font color=&quot;#ffffff&quot;&gt;5&lt;/font&gt;&lt;/b&gt;" style="rounded=1;whiteSpace=wrap;html=1;fillColor=#AE562C;strokeColor=#FFFFFF;fontColor=#161513;fontFamily=Oracle Sans;labelBackgroundColor=none;align=center;arcSize=50;" parent="1" vertex="1">
          <mxGeometry x="539.5" y="285" width="20" height="20" as="geometry" />
        </mxCell>
        <mxCell id="Nkz60xgJKw_xwo8QLRS3-173" value="" style="edgeStyle=orthogonalEdgeStyle;rounded=0;orthogonalLoop=1;jettySize=auto;html=1;exitX=0.5;exitY=0;exitDx=0;exitDy=0;entryX=0.5;entryY=1;entryDx=0;entryDy=0;endArrow=none;endFill=0;dashed=1;" parent="1" source="Nkz60xgJKw_xwo8QLRS3-124" target="Nkz60xgJKw_xwo8QLRS3-172" edge="1">
          <mxGeometry relative="1" as="geometry">
            <mxPoint x="699.5" y="330" as="sourcePoint" />
            <mxPoint x="699.5" y="260" as="targetPoint" />
          </mxGeometry>
        </mxCell>
        <mxCell id="Nkz60xgJKw_xwo8QLRS3-172" value="&lt;b&gt;&lt;font color=&quot;#ffffff&quot;&gt;6&lt;/font&gt;&lt;/b&gt;" style="rounded=1;whiteSpace=wrap;html=1;fillColor=#AE562C;strokeColor=#FFFFFF;fontColor=#161513;fontFamily=Oracle Sans;labelBackgroundColor=none;align=center;arcSize=50;" parent="1" vertex="1">
          <mxGeometry x="689.5" y="285" width="20" height="20" as="geometry" />
        </mxCell>
      </root>
    </mxGraphModel>
  </diagram>
</mxfile>
